<svg width="183" height="74" viewBox="0 0 183 74" fill="none" xmlns="http://www.w3.org/2000/svg">
<g clip-path="url(#clip0_2262_5968)">
<path d="M67.3452 21.3286C67.3452 18.214 69.1643 16.0728 72.2488 16.0728C74.582 16.0728 76.2034 17.3186 76.8361 19.3042L75.0961 19.7713C74.7006 18.4476 73.7516 17.669 72.2093 17.669C70.1529 17.669 69.1248 19.1095 69.1248 21.3286C69.1248 23.5478 70.1529 24.9883 72.2093 24.9883C73.7516 24.9883 74.7006 24.2097 75.0961 22.8859L76.8361 23.3531C76.2034 25.3387 74.582 26.5845 72.2488 26.5845C69.1643 26.5845 67.3452 24.4822 67.3452 21.3286Z" fill="white"/>
<path d="M78.8135 22.6137C78.8135 20.2388 80.3557 18.6426 82.6098 18.6426C84.943 18.6426 86.4457 20.2777 86.4457 22.6137C86.4457 24.9886 84.9035 26.5848 82.6098 26.5848C80.3162 26.5848 78.8135 24.9496 78.8135 22.6137ZM84.6266 22.6137C84.6266 21.1343 83.9544 20.1999 82.6098 20.1999C81.2257 20.1999 80.593 21.1732 80.593 22.6137C80.593 24.0931 81.2653 25.0275 82.6098 25.0275C83.9939 24.9886 84.6266 24.0153 84.6266 22.6137Z" fill="white"/>
<path d="M89.0164 16.1504H90.7168V17.7077H89.0164V16.1504ZM89.0164 18.8367H90.7168V26.3896H89.0164V18.8367Z" fill="white"/>
<path d="M100.721 22.1464V26.3512H98.9814V22.7304C98.9814 21.796 98.8233 20.1998 97.2019 20.1998C96.3319 20.1998 95.4224 20.667 95.4224 22.4968V26.3901H93.6824V18.8372H95.2246V19.6937C95.7783 19.0318 96.6087 18.6425 97.716 18.6425C100.563 18.6036 100.721 21.251 100.721 22.1464Z" fill="white"/>
<path d="M74.5425 37.4468L76.322 37.1742C76.6384 38.3811 77.6666 39.043 78.8925 39.043C79.9997 39.043 80.9884 38.5369 80.9884 37.6025C80.9884 37.0574 80.6325 36.6681 79.8415 36.4345L77.192 35.6559C76.2825 35.3833 74.8984 34.8772 74.8984 33.0863C74.8984 31.1397 76.5593 30.1274 78.6156 30.1274C80.7115 30.1664 82.2143 31.2176 82.6493 33.0863L80.7906 33.3978C80.5534 32.3466 79.6438 31.7237 78.5761 31.7237C77.5479 31.6847 76.6779 32.2298 76.6779 33.0084C76.6779 33.7482 77.4688 34.0207 78.1411 34.2154L79.9602 34.7215C80.9488 34.994 82.6888 35.5001 82.6888 37.4857C82.6888 39.588 80.7906 40.6392 78.6947 40.6392C76.5593 40.6392 74.8588 39.4323 74.5425 37.4468Z" fill="white"/>
<path d="M85.3386 30.2051H87.0391V31.7624H85.3386V30.2051ZM85.3386 32.8914H87.0391V40.4443H85.3386V32.8914Z" fill="white"/>
<path d="M89.1746 40.4445L91.9823 36.6291L89.2141 32.8916H91.2309L92.9709 35.3054L94.6714 32.8916H96.6882L93.92 36.6291L96.7673 40.4445H94.7505L92.9709 37.9528L91.1914 40.4445H89.1746Z" fill="white"/>
<path d="M100.999 34.2156V37.2524C100.999 37.8363 100.959 38.3035 101.157 38.615C101.513 39.16 102.304 39.16 103.253 39.0432V40.4448C101.75 40.7173 100.168 40.6005 99.575 39.5104C99.2191 38.8486 99.2981 38.2257 99.2981 37.3691V34.2156H97.9141V32.8919H99.2981V30.7896H100.999V32.8919H103.253V34.2156H100.999Z" fill="white"/>
<path d="M108.631 38.3032L110.727 32.8916H112.427L108.156 43.7927H106.535L107.8 40.4056L104.716 32.8916H106.495L108.631 38.3032Z" fill="white"/>
<path d="M87.553 52.9028V54.499H80.949V44.4155H87.553V46.0118H82.689V48.5034H86.7226V50.0607H82.689V52.9028H87.553Z" fill="white"/>
<path d="M90.2817 44.2598H91.9822V45.8171H90.2817V44.2598ZM90.2817 46.9461H91.9822V54.499H90.2817V46.9461Z" fill="white"/>
<path d="M100.207 46.946H101.71V54.8493C101.71 55.2386 101.671 55.589 101.592 55.9005C101.236 57.3799 99.8911 58.0418 98.1511 58.0418C96.8857 58.0418 95.6993 57.4188 95.1061 56.4066L96.6879 55.628C96.9647 56.173 97.5579 56.4455 98.1511 56.4455C99.2188 56.4455 100.01 55.9005 99.9702 54.8104V54.0707C99.4561 54.46 98.7838 54.6546 97.9929 54.6546C95.8575 54.6546 94.4734 52.9416 94.4734 50.6835C94.4734 48.3865 95.8575 46.7124 98.0325 46.7124C98.9025 46.7124 99.6143 46.9849 100.168 47.4521V46.946H100.207ZM100.207 50.7225C100.207 49.243 99.6538 48.2308 98.3488 48.2308C96.9647 48.2308 96.332 49.3209 96.332 50.7225C96.332 52.124 96.9647 53.2141 98.2697 53.2141C99.6538 53.2141 100.207 52.163 100.207 50.7225Z" fill="white"/>
<path d="M111.597 50.2943V54.4991H109.857V50.8783C109.857 49.9439 109.699 48.3477 108.077 48.3477C107.207 48.3477 106.298 48.8149 106.298 50.6447V54.538H104.558V44.4155H106.1V47.7637C106.654 47.1019 107.484 46.7125 108.591 46.7125C111.399 46.7125 111.597 49.3989 111.597 50.2943Z" fill="white"/>
<path d="M116.54 48.2698V51.3065C116.54 51.8905 116.5 52.3577 116.698 52.6692C117.054 53.2142 117.845 53.2142 118.794 53.0974V54.499C117.291 54.7715 115.709 54.6547 115.116 53.5646C114.76 52.9028 114.839 52.2799 114.839 51.4233V48.2698H113.455V46.9461H114.839V44.8438H116.54V46.9461H118.794V48.2698H116.54Z" fill="white"/>
<path d="M38.3586 50.256C38.3586 27.4415 73.0003 27.5194 73.0003 50.256C73.0003 72.9926 38.3586 72.8758 38.3586 50.256ZM63.5095 50.256C63.5095 39.3938 47.8495 39.4327 47.8495 50.256C47.8495 60.9624 63.5095 61.0014 63.5095 50.256Z" fill="white"/>
<path d="M35.5115 18.7981C35.5115 2.68001 59.99 2.71894 59.99 18.7981C59.99 34.8772 35.5115 34.7604 35.5115 18.7981ZM53.2673 18.7981C53.2673 11.1284 42.1946 11.1673 42.1946 18.7981C42.2342 26.351 53.2673 26.3899 53.2673 18.7981Z" fill="white"/>
<path d="M16.7274 18.4474L21.7497 8.24707H11.9424L3.91474 24.4041C1.50248 27.2461 -0.000244141 31.0615 -0.000244141 35.8502C-0.000244141 58.9762 35.3928 59.093 35.3928 35.8502C35.3928 23.8201 25.9019 18.0191 16.7274 18.4474ZM9.68836 35.8502C9.68836 24.7934 25.7042 24.7545 25.7042 35.8502C25.7042 46.8681 9.68836 46.7903 9.68836 35.8502Z" fill="white"/>
</g>
<defs>
<clipPath id="clip0_2262_5968">
<rect width="183" height="74" fill="white"/>
</clipPath>
</defs>
</svg>
