<svg width="1920" height="1080" viewBox="0 0 1920 1080" fill="none" xmlns="http://www.w3.org/2000/svg">
<rect width="1920" height="1080" fill="#1B1B24"/>
<path d="M338.807 450.167H375.61V480.019H376.428C381.063 469.659 389.105 461.344 400.555 455.074C412.005 448.531 425.227 445.26 440.221 445.26C449.491 445.26 458.351 446.759 466.802 449.758C475.526 452.484 483.023 456.846 489.293 462.844C495.836 468.841 501.016 476.611 504.833 486.153C508.649 495.422 510.558 506.463 510.558 519.276V644H473.754V529.499C473.754 520.503 472.527 512.869 470.073 506.599C467.62 500.056 464.348 494.876 460.259 491.06C456.17 486.97 451.399 484.108 445.947 482.472C440.767 480.564 435.314 479.61 429.589 479.61C421.956 479.61 414.868 480.837 408.325 483.29C401.782 485.744 396.057 489.697 391.15 495.149C386.243 500.329 382.426 507.008 379.7 515.187C376.974 523.365 375.61 533.043 375.61 544.221V644H338.807V450.167Z" fill="white"/>
<path fill-rule="evenodd" clip-rule="evenodd" d="M334.807 446.167H379.61V467.157C384.504 461.014 390.86 455.827 398.602 451.583C410.728 444.662 424.642 441.26 440.221 441.26C449.905 441.26 459.194 442.823 468.068 445.963C477.303 448.86 485.312 453.509 492.027 459.924C499.058 466.378 504.541 474.66 508.539 484.648C512.596 494.511 514.558 506.088 514.558 519.276V648H469.754V529.499C469.754 520.844 468.571 513.735 466.348 508.057L466.338 508.03L466.328 508.004C464.039 501.898 461.069 497.288 457.53 493.984L457.479 493.937L457.431 493.888C453.802 490.259 449.605 487.746 444.797 486.304L444.679 486.268L444.564 486.226C439.843 484.486 434.86 483.61 429.589 483.61C422.391 483.61 415.783 484.765 409.729 487.035C403.818 489.252 398.623 492.825 394.123 497.825L394.089 497.863L394.054 497.9C389.623 502.576 386.074 508.714 383.494 516.452C380.938 524.122 379.61 533.353 379.61 544.221V648H334.807V446.167ZM504.833 486.153C501.016 476.611 495.836 468.841 489.293 462.844C483.023 456.846 475.526 452.484 466.802 449.758C458.351 446.759 449.491 445.26 440.221 445.26C425.227 445.26 412.005 448.531 400.555 455.074C391.39 460.093 384.409 466.421 379.61 474.06C378.414 475.965 377.353 477.951 376.428 480.019H375.61V450.167H338.807V644H375.61V544.221C375.61 533.043 376.974 523.365 379.7 515.187C382.426 507.008 386.243 500.329 391.15 495.149C396.057 489.697 401.782 485.744 408.325 483.29C414.868 480.837 421.956 479.61 429.589 479.61C435.314 479.61 440.767 480.564 445.947 482.472C451.399 484.108 456.17 486.97 460.259 491.06C464.348 494.876 467.62 500.056 470.073 506.599C472.527 512.869 473.754 520.503 473.754 529.499V644H510.558V519.276C510.558 506.463 508.649 495.422 504.833 486.153Z" fill="white"/>
<path fill-rule="evenodd" clip-rule="evenodd" d="M1411.16 446.167H1368.81V648H1413.61V543.403C1413.61 532.814 1414.94 523.872 1417.48 516.491L1417.49 516.471L1417.5 516.452C1420.09 508.67 1423.53 502.504 1427.72 497.816C1431.98 493.055 1436.81 489.609 1442.21 487.401L1442.25 487.385L1442.29 487.367C1448.08 484.85 1453.94 483.61 1459.91 483.61C1468.48 483.61 1474.73 485.178 1479.04 487.899L1479.14 487.963L1479.25 488.022C1483.95 490.608 1487.46 494.339 1489.83 499.322L1489.88 499.428L1489.94 499.53C1492.63 504.424 1494.42 510.431 1495.19 517.657L1495.2 517.727L1495.21 517.797C1496.27 525.21 1496.8 533.469 1496.8 542.585V648H1541.61V538.087C1541.61 521.495 1545.29 508.322 1552.33 498.261C1558.98 488.763 1570.2 483.61 1587.09 483.61C1595.65 483.61 1602.08 485.172 1606.7 487.947L1606.77 487.986L1606.83 488.022C1611.67 490.684 1615.36 494.265 1617.98 498.789C1620.67 503.435 1622.43 508.899 1623.19 515.254L1623.2 515.332L1623.21 515.41C1624.27 522.003 1624.8 528.879 1624.8 536.042V648H1669.6V531.135C1669.6 519.984 1668.49 509.224 1666.25 498.862C1664.25 488.037 1660.38 478.395 1654.6 470.003C1648.74 461.22 1640.71 454.247 1630.63 449.063C1620.34 443.773 1607.39 441.26 1592 441.26C1579.56 441.26 1567.34 444.446 1555.38 450.713C1545.22 456.032 1536.99 463.573 1530.69 473.259C1524.7 463.699 1517.36 456.186 1508.61 450.843C1498.03 444.374 1485.13 441.26 1470.13 441.26C1461 441.26 1452.5 442.685 1444.66 445.583C1437.29 448.138 1430.7 451.424 1424.92 455.465C1419.54 459.146 1414.94 463.153 1411.16 467.503V446.167Z" fill="white"/>
<path d="M1344.56 644H1307.75V614.148H1306.94C1302.3 624.508 1294.26 632.959 1282.81 639.502C1271.36 645.772 1258.14 648.907 1243.14 648.907C1233.6 648.907 1224.6 647.408 1216.15 644.409C1207.7 641.683 1200.21 637.321 1193.66 631.323C1187.39 625.325 1182.35 617.692 1178.53 608.423C1174.71 598.881 1172.81 587.704 1172.81 574.891V450.167H1209.61V564.667C1209.61 573.664 1210.84 581.434 1213.29 587.976C1215.74 594.247 1219.02 599.427 1223.11 603.516C1227.19 607.333 1231.83 610.195 1237.01 612.103C1242.46 613.739 1248.05 614.557 1253.77 614.557C1261.41 614.557 1268.5 613.33 1275.04 610.877C1281.58 608.423 1287.31 604.606 1292.21 599.427C1297.12 593.974 1300.94 587.159 1303.66 578.98C1306.39 570.801 1307.75 561.123 1307.75 549.946V450.167H1344.56V644Z" fill="white"/>
<path fill-rule="evenodd" clip-rule="evenodd" d="M1348.56 648H1303.75V627.063C1298.87 633.26 1292.52 638.559 1284.79 642.975L1284.76 642.993L1284.73 643.01C1272.61 649.648 1258.71 652.907 1243.14 652.907C1233.19 652.907 1223.76 651.346 1214.87 648.198C1205.89 645.294 1197.91 640.645 1190.96 634.272L1190.93 634.243L1190.9 634.214C1184.17 627.775 1178.83 619.652 1174.83 609.946L1174.83 609.927L1174.82 609.909C1170.77 599.794 1168.81 588.092 1168.81 574.891V446.167H1213.61V564.667C1213.61 573.302 1214.79 580.565 1217.03 586.545C1219.3 592.347 1222.27 597.011 1225.89 600.639C1229.55 604.045 1233.67 606.594 1238.28 608.308C1243.32 609.807 1248.48 610.557 1253.77 610.557C1260.97 610.557 1267.58 609.402 1273.63 607.131C1279.58 604.901 1284.78 601.442 1289.28 596.713C1293.74 591.741 1297.29 585.443 1299.87 577.715C1302.43 570.045 1303.75 560.814 1303.75 549.946V446.167H1348.56V648ZM1237.01 612.103C1231.83 610.195 1227.19 607.333 1223.11 603.516C1219.02 599.427 1215.74 594.247 1213.29 587.976C1210.84 581.434 1209.61 573.664 1209.61 564.667V450.167H1172.81V574.891C1172.81 587.704 1174.71 598.881 1178.53 608.423C1182.35 617.692 1187.39 625.325 1193.66 631.323C1200.21 637.321 1207.7 641.683 1216.15 644.409C1224.6 647.408 1233.6 648.907 1243.14 648.907C1258.14 648.907 1271.36 645.772 1282.81 639.502C1291.97 634.265 1298.96 627.805 1303.75 620.123C1304.95 618.207 1306.01 616.216 1306.94 614.148H1307.75V644H1344.56V450.167H1307.75V549.946C1307.75 561.123 1306.39 570.801 1303.66 578.98C1300.94 587.159 1297.12 593.974 1292.21 599.427C1287.31 604.606 1281.58 608.423 1275.04 610.877C1268.5 613.33 1261.41 614.557 1253.77 614.557C1248.05 614.557 1242.46 613.739 1237.01 612.103Z" fill="white"/>
<path d="M578.615 560.578C578.615 569.029 580.387 576.799 583.931 583.887C587.748 590.703 592.655 596.564 598.652 601.471C604.65 606.378 611.602 610.195 619.508 612.921C627.414 615.647 635.592 617.01 644.044 617.01C655.494 617.01 665.444 614.421 673.896 609.241C682.347 603.788 690.117 596.7 697.205 587.976L725.012 609.241C704.565 635.685 675.94 648.907 639.137 648.907C623.87 648.907 609.966 646.317 597.426 641.137C585.158 635.958 574.662 628.869 565.938 619.873C557.487 610.604 550.944 599.835 546.309 587.567C541.675 575.027 539.357 561.532 539.357 547.083C539.357 532.634 541.811 519.276 546.718 507.008C551.898 494.468 558.85 483.699 567.574 474.703C576.57 465.433 587.202 458.209 599.47 453.029C611.738 447.849 625.097 445.26 639.545 445.26C656.721 445.26 671.169 448.258 682.892 454.256C694.887 460.254 704.702 468.16 712.335 477.974C719.969 487.516 725.421 498.421 728.692 510.688C732.236 522.684 734.009 534.952 734.009 547.492V560.578H578.615ZM694.751 531.135C694.479 522.956 693.115 515.459 690.662 508.644C688.481 501.828 685.073 495.967 680.439 491.06C675.804 485.88 669.943 481.927 662.855 479.201C656.039 476.202 647.997 474.703 638.728 474.703C629.731 474.703 621.416 476.475 613.783 480.019C606.422 483.29 600.152 487.652 594.972 493.104C589.792 498.557 585.703 504.691 582.704 511.506C579.978 518.049 578.615 524.592 578.615 531.135H694.751Z" fill="white"/>
<path fill-rule="evenodd" clip-rule="evenodd" d="M696.549 582.44L730.636 608.506L728.176 611.688C706.889 639.22 677.035 652.907 639.137 652.907C623.411 652.907 608.98 650.238 595.899 644.834L595.884 644.828L595.87 644.822C583.139 639.447 572.187 632.063 563.066 622.658L563.024 622.613L562.982 622.568C554.175 612.908 547.372 601.7 542.567 588.981L542.562 588.968L542.557 588.954C537.746 575.935 535.357 561.967 535.357 547.083C535.357 532.173 537.891 518.305 543.004 505.523L543.013 505.502L543.021 505.481C548.378 492.512 555.598 481.307 564.702 471.918L564.703 471.917C574.085 462.251 585.168 454.726 597.914 449.344C610.715 443.939 624.608 441.26 639.545 441.26C657.161 441.26 672.27 444.332 684.698 450.687C697.169 456.925 707.454 465.189 715.476 475.497C723.449 485.47 729.136 496.854 732.544 509.606C736.187 521.954 738.009 534.587 738.009 547.492V564.578H582.761C583.226 570.86 584.803 576.66 587.467 582.015C591.034 588.362 595.603 593.808 601.185 598.375C606.789 602.96 613.317 606.555 620.812 609.14C628.294 611.72 636.031 613.01 644.044 613.01C654.854 613.01 664.045 610.576 671.766 605.854C679.809 600.659 687.258 593.875 694.1 585.454L696.549 582.44ZM673.896 609.241C665.444 614.421 655.494 617.01 644.044 617.01C635.592 617.01 627.414 615.647 619.508 612.921C611.602 610.195 604.65 606.378 598.652 601.471C592.655 596.564 587.748 590.703 583.931 583.887C580.953 577.932 579.226 571.495 578.751 564.578C578.66 563.262 578.615 561.929 578.615 560.578H734.009V547.492C734.009 534.952 732.236 522.684 728.692 510.688C725.421 498.421 719.969 487.516 712.335 477.974C704.702 468.16 694.887 460.254 682.892 454.256C671.169 448.258 656.721 445.26 639.545 445.26C625.097 445.26 611.738 447.849 599.47 453.029C587.202 458.209 576.57 465.433 567.574 474.703C558.85 483.699 551.898 494.468 546.718 507.008C541.811 519.276 539.357 532.634 539.357 547.083C539.357 561.532 541.675 575.027 546.309 587.567C550.944 599.835 557.487 610.604 565.938 619.873C574.662 628.869 585.158 635.958 597.426 641.137C609.966 646.317 623.87 648.907 639.137 648.907C674.462 648.907 702.253 636.726 722.509 612.362C723.357 611.343 724.191 610.303 725.012 609.241L697.205 587.976C690.117 596.7 682.347 603.788 673.896 609.241ZM686.874 509.931L686.852 509.863C684.842 503.582 681.729 498.252 677.531 493.806L677.494 493.767L677.458 493.727C673.284 489.063 667.97 485.454 661.419 482.934L661.33 482.9L661.244 482.862C655.044 480.134 647.574 478.703 638.728 478.703C630.272 478.703 622.537 480.364 615.467 483.647L615.437 483.661L615.407 483.674C608.492 486.747 602.665 490.814 597.872 495.859C593.016 500.971 589.191 506.707 586.381 513.081C584.416 517.807 583.231 522.488 582.8 527.135H690.513C689.995 520.937 688.782 515.231 686.898 509.999L686.874 509.931ZM694.527 527.135C694.631 528.45 694.706 529.783 694.751 531.135H578.615C578.615 529.802 578.671 528.468 578.785 527.135C579.227 521.925 580.533 516.716 582.704 511.506C585.703 504.691 589.792 498.557 594.972 493.104C600.152 487.652 606.422 483.29 613.783 480.019C621.416 476.475 629.731 474.703 638.728 474.703C647.997 474.703 656.039 476.202 662.855 479.201C669.943 481.927 675.804 485.88 680.439 491.06C685.073 495.967 688.481 501.828 690.662 508.644C692.71 514.333 693.998 520.496 694.527 527.135Z" fill="white"/>
<path fill-rule="evenodd" clip-rule="evenodd" d="M868.382 487.061C844.932 466.17 807.81 482.816 807.81 514.222V532.727H760.189V514.222C760.189 441.703 845.91 403.265 900.059 451.504L1072.23 604.884C1082.67 614.182 1099.19 606.773 1099.19 592.795V556.727H1146.81V592.795C1146.81 647.887 1081.69 677.087 1040.55 640.441L868.382 487.061Z" fill="#BB64FF"/>
<path fill-rule="evenodd" clip-rule="evenodd" d="M1038.62 487.061C1062.07 466.17 1099.19 482.816 1099.19 514.222V532.727H1146.81V514.222C1146.81 441.703 1061.09 403.265 1006.94 451.504L834.77 604.884C824.333 614.182 807.811 606.773 807.811 592.795V556.727H760.19V592.795C760.19 647.887 825.31 677.087 866.446 640.441L1038.62 487.061Z" fill="#05D2DD"/>
</svg>
