<svg width="346" height="103" viewBox="0 0 346 103" fill="none" xmlns="http://www.w3.org/2000/svg">
<path d="M147.028 78.9935C146.68 81.7796 145.598 84.3054 143.864 86.6557C142.351 88.7048 140.259 90.2523 137.866 91.0964C135.472 91.992 132.94 92.449 130.391 92.4449C127.836 92.4727 125.299 92.0153 122.913 91.0964C120.57 90.1518 118.506 88.6234 116.917 86.6557C115.186 84.4042 114.091 81.7276 113.746 78.906C113.39 76.1215 113.201 73.3183 113.183 70.511V27.6241C113.183 27.2892 113.315 26.968 113.551 26.7311C113.788 26.4943 114.108 26.3613 114.442 26.3613H121.914C122.249 26.3618 122.569 26.495 122.805 26.7317C123.041 26.9684 123.174 27.2893 123.175 27.6241V72.1586C123.175 73.465 123.218 74.7715 123.35 76.0762C123.457 77.2947 123.766 78.4867 124.262 79.6038C124.74 80.6208 125.479 81.4918 126.404 82.1279C127.359 82.7381 128.619 83.0427 130.226 83.0427C131.877 83.0427 133.179 82.7381 134.096 82.1279C135.041 81.5241 135.784 80.6436 136.224 79.6038C136.719 78.4867 137.031 77.2947 137.132 76.0762C137.26 74.7715 137.306 73.465 137.306 72.1586V27.6241C137.306 27.2893 137.444 26.9684 137.682 26.7317C137.912 26.495 138.233 26.3618 138.572 26.3613H146.038C146.377 26.3618 146.698 26.495 146.937 26.7317C147.166 26.9684 147.303 27.2893 147.303 27.6241V70.5478C147.551 73.4213 147.377 76.2074 147.028 78.9935Z" fill="white" stroke="white" stroke-width="0.328068"/>
<path d="M154.652 91.1392V27.7105C154.661 27.353 154.798 27.0107 155.055 26.7578C155.303 26.505 155.642 26.3622 156 26.3604H163.383C163.741 26.3622 164.089 26.505 164.337 26.7578C164.594 27.0107 164.731 27.353 164.731 27.7105V91.1392C164.731 91.4964 164.594 91.839 164.337 92.0912C164.089 92.3438 163.741 92.4865 163.383 92.4876H156C155.826 92.4905 155.651 92.4574 155.486 92.3908C155.321 92.3242 155.165 92.2248 155.046 92.0994C154.918 91.9734 154.817 91.8235 154.753 91.6587C154.688 91.494 154.652 91.3174 154.652 91.1392Z" fill="white" stroke="white" stroke-width="0.328068"/>
<path d="M206.204 79.5594C205.709 82.0053 204.7 84.3189 203.251 86.3504C201.82 88.2974 199.921 89.8535 197.729 90.877C195.427 91.9663 192.602 92.4875 189.264 92.4875C186.173 92.4875 183.394 91.963 180.963 90.877C178.487 89.7889 176.441 87.9614 174.745 85.3919C173.883 84.1967 173.231 82.8547 172.837 81.4306C172.397 80.0106 172.094 78.5534 171.929 77.0773C171.736 75.5895 171.635 74.0922 171.617 72.5929V50.1308C171.617 48.5198 171.617 46.9527 171.663 45.4276C171.709 43.898 171.837 42.3725 172.057 40.8576C172.277 39.3563 172.653 37.8827 173.185 36.4607C173.736 34.9651 174.497 33.5568 175.442 32.2806C177.01 30.2147 179.138 28.6437 181.568 27.7541C183.999 26.8373 186.576 26.3634 189.172 26.355C192.217 26.355 194.868 26.8797 197.124 27.8801C199.27 28.8043 201.169 30.2389 202.645 32.0602C204.076 33.8459 205.122 35.9342 205.809 38.3724C206.525 40.9341 206.883 43.5833 206.864 46.2426V46.7675C206.864 46.9519 206.828 47.1354 206.763 47.3066C206.69 47.4779 206.589 47.6337 206.461 47.764C206.332 47.8949 206.176 47.9979 206.002 48.0669C205.828 48.136 205.644 48.17 205.461 48.1666H198.206C198.032 48.1712 197.848 48.1393 197.683 48.0739C197.509 48.0081 197.362 47.9096 197.225 47.7841C197.096 47.6581 196.995 47.5082 196.922 47.3422C196.849 47.1758 196.812 46.9973 196.812 46.8166C196.766 45.9018 196.72 44.9449 196.638 43.9863C196.528 42.5961 196.207 41.2309 195.684 39.9376C195.179 38.7305 194.391 37.6678 193.382 36.847C192.382 36.0638 190.988 35.6227 189.254 35.6227C187.429 35.6227 185.989 36.0147 184.99 36.847C183.999 37.6546 183.219 38.7032 182.733 39.8939C182.238 41.1749 181.944 42.5266 181.862 43.8993C181.77 45.3368 181.734 46.7299 181.734 48.0792V69.5026C181.734 70.8528 181.77 72.3325 181.816 73.9429C181.862 75.4578 182.137 76.9564 182.642 78.3837C183.119 79.7036 183.907 80.8849 184.944 81.8222C185.989 82.7808 187.466 83.2214 189.337 83.2214C191.199 83.2214 192.685 82.7423 193.767 81.74C194.849 80.7778 195.656 79.5462 196.115 78.1703C196.61 76.6804 196.904 75.1276 196.986 73.5567C197.069 72.4249 197.115 71.3792 197.115 70.3786C197.124 70.016 197.28 69.6726 197.546 69.4209C197.803 69.1691 198.151 69.028 198.509 69.0285H205.727C205.91 69.0256 206.094 69.0596 206.259 69.1287C206.433 69.1981 206.589 69.3007 206.717 69.4315C206.846 69.5619 206.947 69.7177 207.02 69.8885C207.094 70.0597 207.121 70.2429 207.121 70.4276V71.1675C207.094 73.9883 206.791 76.7994 206.204 79.5594Z" fill="white" stroke="white" stroke-width="0.328068"/>
<path d="M240.9 92.0102L230.646 62.7133C230.61 62.589 230.536 62.479 230.435 62.3965C230.334 62.3143 230.206 62.2632 230.078 62.2494C229.949 62.2355 229.821 62.2592 229.702 62.3185C229.591 62.3773 229.491 62.4688 229.426 62.582L224.868 70.3317C224.813 70.4404 224.785 70.5598 224.776 70.6816V91.7499C224.776 91.8422 224.767 91.9338 224.73 92.0196C224.694 92.1051 224.639 92.1827 224.574 92.2481C224.51 92.3135 224.437 92.365 224.345 92.3993C224.263 92.4341 224.171 92.4508 224.079 92.4492H215.394C215.302 92.4508 215.21 92.4337 215.118 92.399C215.036 92.3642 214.962 92.3127 214.898 92.2477C214.834 92.1823 214.779 92.1046 214.742 92.0192C214.706 91.9338 214.697 91.8422 214.697 91.7499V27.06C214.697 26.9677 214.706 26.8761 214.742 26.7906C214.779 26.7051 214.834 26.6274 214.898 26.5622C214.962 26.4969 215.036 26.4455 215.118 26.4108C215.21 26.3761 215.302 26.359 215.394 26.3604H224.079C224.171 26.359 224.263 26.3761 224.345 26.4108C224.437 26.4455 224.51 26.4969 224.574 26.5622C224.639 26.6274 224.694 26.7051 224.73 26.7906C224.767 26.8761 224.776 26.9677 224.776 27.06V51.0894C224.776 51.8292 225.739 52.048 226.042 51.4393L239.075 26.7556C239.13 26.6489 239.222 26.5603 239.332 26.4988C239.433 26.4375 239.552 26.4054 239.68 26.4058H248.935C249.054 26.4051 249.173 26.4368 249.283 26.4979C249.384 26.559 249.476 26.6472 249.54 26.7537C249.604 26.8602 249.632 26.9812 249.632 27.1043C249.632 27.2275 249.604 27.3486 249.54 27.4553L236.599 50.2183C236.553 50.3112 236.516 50.4137 236.516 50.5188C236.507 50.6243 236.516 50.7297 236.553 50.8286L251.76 91.6186C251.806 91.7249 251.815 91.8389 251.796 91.9509C251.787 92.0633 251.741 92.1704 251.677 92.2636C251.622 92.3573 251.53 92.4345 251.439 92.4889C251.338 92.5433 251.228 92.5735 251.108 92.5772H241.551C241.405 92.5412 241.276 92.4713 241.157 92.3728C241.047 92.2743 240.955 92.15 240.9 92.0102Z" fill="white" stroke="white" stroke-width="0.328068"/>
<path d="M290.623 71.1166C290.632 73.7825 290.448 76.446 290.054 79.0833C289.669 81.609 288.623 84.0452 286.972 86.3102C285.413 88.4815 283.258 90.1463 280.763 91.0987C275.709 92.9549 270.17 92.9549 265.116 91.0987C262.64 90.1839 260.558 88.5734 258.861 86.3102C257.201 84.2194 256.128 81.7263 255.733 79.0833C255.339 76.4463 255.137 73.7837 255.128 71.1166V47.696C255.128 45.0415 255.339 42.3916 255.779 39.773C256.21 37.1644 257.274 34.6995 258.861 32.5882C260.393 30.3968 262.539 28.7144 265.033 27.7576C267.537 26.8005 270.206 26.3132 272.884 26.3199C275.563 26.3002 278.213 26.788 280.708 27.7576C283.139 28.7142 285.221 30.3251 286.917 32.5899C288.559 34.6717 289.623 37.1488 290.008 39.773C290.384 42.3964 290.577 45.0447 290.568 47.696V71.1166H290.623ZM280.589 47.913C280.589 46.4333 280.543 44.9536 280.451 43.4285C280.369 41.939 279.974 40.4843 279.286 39.1627C278.672 38.0248 277.718 37.1103 276.553 36.5515C275.407 35.9805 274.141 35.6813 272.857 35.6768C270.94 35.6768 269.473 36.0268 268.473 36.7649C267.455 37.4917 266.657 38.4862 266.171 39.6385C265.666 40.9028 265.373 42.2407 265.299 43.5998C265.208 45.0358 265.162 46.4734 265.162 47.8656V70.9417C265.162 72.3408 265.208 73.7715 265.299 75.2095C265.373 76.5678 265.666 77.9049 266.171 79.1707C266.629 80.3382 267.436 81.3388 268.473 82.0427C269.518 82.7842 270.995 83.1321 272.857 83.1321C274.728 83.1321 276.205 82.7825 277.25 82.0427C278.278 81.3295 279.075 80.3317 279.552 79.1707C280.057 77.9065 280.35 76.5682 280.424 75.2095C280.552 73.7715 280.598 72.3355 280.598 70.9417L280.589 47.913Z" fill="white" stroke="white" stroke-width="0.328068"/>
<path d="M335.617 91.7482V46.5175C335.617 46.1676 335.095 46.0822 335.003 46.43L324.318 91.9228C324.281 92.0814 324.189 92.2228 324.07 92.325C323.942 92.4272 323.786 92.4844 323.621 92.4877H319.191C319.026 92.4975 318.86 92.4451 318.732 92.3405C318.604 92.2363 318.521 92.0871 318.494 91.9228L308.019 46.4738C308.001 46.3986 307.955 46.3328 307.891 46.2894C307.827 46.2457 307.753 46.2277 307.68 46.2388C307.598 46.2498 307.533 46.2886 307.478 46.3487C307.432 46.4084 307.405 46.484 307.414 46.5612V91.7482C307.405 91.9424 307.322 92.1272 307.185 92.2649C307.047 92.4022 306.864 92.4824 306.671 92.4877H298.591C298.398 92.4824 298.215 92.4022 298.077 92.2649C297.94 92.1272 297.857 91.9424 297.857 91.7482V27.102C297.857 26.9073 297.94 26.722 298.077 26.5842C298.215 26.4462 298.398 26.3662 298.591 26.3605H311.972C312.138 26.3574 312.293 26.4127 312.422 26.5163C312.55 26.62 312.642 26.7655 312.67 26.9271L321.227 66.4996C321.245 66.5654 321.282 66.6231 321.337 66.6644C321.392 66.7052 321.456 66.7277 321.529 66.7277C321.594 66.7277 321.667 66.7052 321.722 66.6644C321.777 66.6231 321.814 66.5654 321.832 66.4996L330.435 26.9271C330.472 26.7686 330.564 26.627 330.692 26.5244C330.811 26.4219 330.967 26.3642 331.132 26.3605H344.34C344.532 26.3662 344.716 26.4462 344.853 26.5842C344.991 26.722 345.073 26.9073 345.073 27.102V91.7482C345.073 91.9424 344.991 92.1272 344.853 92.2649C344.716 92.4022 344.532 92.4824 344.34 92.4877H336.259C335.92 92.4877 335.617 92.1398 335.617 91.7482Z" fill="white" stroke="white" stroke-width="0.328068"/>
<path fill-rule="evenodd" clip-rule="evenodd" d="M83.2215 93.1706C74.9515 98.9515 64.893 102.342 54.0452 102.342C25.8501 102.342 2.99194 79.4384 2.99194 51.1856C2.99194 22.9327 25.8501 0.0292969 54.0452 0.0292969C82.2402 0.0292969 105.098 22.9327 105.098 51.1856C105.098 61.4785 102.064 71.0614 96.8439 79.0854L89.1713 71.5607C92.6397 65.5698 94.6262 58.6102 94.6262 51.1856C94.6262 28.7281 76.4574 10.5228 54.0452 10.5228C31.6329 10.5228 13.4641 28.7281 13.4641 51.1856C13.4641 73.6431 31.6329 91.8482 54.0452 91.8482C61.9515 91.8482 69.3285 89.5831 75.5679 85.6647L83.2215 93.1706Z" fill="white"/>
<path fill-rule="evenodd" clip-rule="evenodd" d="M78.9514 83.0867L91.0702 94.9711C93.2736 97.1331 96.8101 97.0949 98.967 94.8861C101.125 92.6772 101.087 89.1341 98.8824 86.9721L86.6944 75.019C84.4946 78.0519 81.8869 80.7682 78.9514 83.0867Z" fill="white"/>
<path d="M27.761 28.8403H29.2145V30.2973H27.761V28.8403Z" fill="white"/>
<path d="M27.761 33.2036H29.2145V34.6606H27.761V33.2036Z" fill="white"/>
<path d="M27.761 36.1187H29.2145V37.5758H27.761V36.1187Z" fill="white"/>
<path d="M27.761 37.5791H29.2145V39.036H27.761V37.5791Z" fill="white"/>
<path d="M27.761 40.4985H29.2145V41.9554H27.761V40.4985Z" fill="white"/>
<path d="M27.761 43.4067H29.2145V44.8637H27.761V43.4067Z" fill="white"/>
<path d="M27.761 47.7812H29.2145V49.2385H27.761V47.7812Z" fill="white"/>
<path d="M27.761 53.604H29.2145V55.0612H27.761V53.604Z" fill="white"/>
<path d="M27.761 55.0645H29.2145V56.5217H27.761V55.0645Z" fill="white"/>
<path d="M27.761 56.5239H29.2145V57.9808H27.761V56.5239Z" fill="white"/>
<path d="M27.761 59.4312H29.2145V60.8885H27.761V59.4312Z" fill="white"/>
<path d="M27.761 60.8911H29.2145V62.3485H27.761V60.8911Z" fill="white"/>
<path d="M27.761 62.3506H29.2145V63.8075H27.761V62.3506Z" fill="white"/>
<path d="M27.761 65.2656H29.2145V66.723H27.761V65.2656Z" fill="white"/>
<path d="M27.761 66.7261H29.2145V68.1834H27.761V66.7261Z" fill="white"/>
<path d="M27.761 71.1021H29.2145V72.5593H27.761V71.1021Z" fill="white"/>
<path d="M27.761 74.0093H29.2145V75.4661H27.761V74.0093Z" fill="white"/>
<path d="M26.3105 30.3008H27.7652V31.7578H26.3105V30.3008Z" fill="white"/>
<path d="M26.3105 31.7529H27.7652V33.21H26.3105V31.7529Z" fill="white"/>
<path d="M26.3105 33.2036H27.7652V34.6606H26.3105V33.2036Z" fill="white"/>
<path d="M26.3105 34.6636H27.7652V36.1206H26.3105V34.6636Z" fill="white"/>
<path d="M26.3105 36.1187H27.7652V37.5758H26.3105V36.1187Z" fill="white"/>
<path d="M26.3105 39.0391H27.7652V40.4959H26.3105V39.0391Z" fill="white"/>
<path d="M26.3105 43.4067H27.7652V44.8637H26.3105V43.4067Z" fill="white"/>
<path d="M26.3105 44.8657H27.7652V46.3227H26.3105V44.8657Z" fill="white"/>
<path d="M26.3105 49.2422H27.7652V50.6991H26.3105V49.2422Z" fill="white"/>
<path d="M26.3105 50.688H27.7652V52.1449H26.3105V50.688Z" fill="white"/>
<path d="M26.3105 55.0645H27.7652V56.5217H26.3105V55.0645Z" fill="white"/>
<path d="M26.3105 56.5239H27.7652V57.9808H26.3105V56.5239Z" fill="white"/>
<path d="M26.3105 57.9795H27.7652V59.4364H26.3105V57.9795Z" fill="white"/>
<path d="M26.3105 62.3506H27.7652V63.8075H26.3105V62.3506Z" fill="white"/>
<path d="M26.3105 66.7261H27.7652V68.1834H26.3105V66.7261Z" fill="white"/>
<path d="M26.3105 68.186H27.7652V69.643H26.3105V68.186Z" fill="white"/>
<path d="M26.3105 69.6294H27.7652V71.0863H26.3105V69.6294Z" fill="white"/>
<path d="M24.8486 39.0391H26.3033V40.4959H24.8486V39.0391Z" fill="white"/>
<path d="M24.8486 40.4985H26.3033V41.9554H24.8486V40.4985Z" fill="white"/>
<path d="M24.8486 41.9507H26.3033V43.408H24.8486V41.9507Z" fill="white"/>
<path d="M24.8486 49.2422H26.3033V50.6991H24.8486V49.2422Z" fill="white"/>
<path d="M24.8486 52.1616H26.3033V53.6185H24.8486V52.1616Z" fill="white"/>
<path d="M24.8486 53.604H26.3033V55.0612H24.8486V53.604Z" fill="white"/>
<path d="M24.8486 56.5239H26.3033V57.9808H24.8486V56.5239Z" fill="white"/>
<path d="M24.8486 57.9795H26.3033V59.4364H24.8486V57.9795Z" fill="white"/>
<path d="M24.8486 59.4312H26.3033V60.8885H24.8486V59.4312Z" fill="white"/>
<path d="M24.8486 62.3506H26.3033V63.8075H24.8486V62.3506Z" fill="white"/>
<path d="M24.8486 65.2656H26.3033V66.723H24.8486V65.2656Z" fill="white"/>
<path d="M23.4167 36.1187H24.8701V37.5758H23.4167V36.1187Z" fill="white"/>
<path d="M23.4167 40.4985H24.8701V41.9554H23.4167V40.4985Z" fill="white"/>
<path d="M23.4167 41.9507H24.8701V43.408H23.4167V41.9507Z" fill="white"/>
<path d="M23.4167 43.4067H24.8701V44.8637H23.4167V43.4067Z" fill="white"/>
<path d="M23.4167 46.3262H24.8701V47.783H23.4167V46.3262Z" fill="white"/>
<path d="M23.4167 50.688H24.8701V52.1449H23.4167V50.688Z" fill="white"/>
<path d="M23.4167 52.1616H24.8701V53.6185H23.4167V52.1616Z" fill="white"/>
<path d="M23.4167 55.0645H24.8701V56.5217H23.4167V55.0645Z" fill="white"/>
<path d="M23.4167 56.5239H24.8701V57.9808H23.4167V56.5239Z" fill="white"/>
<path d="M23.4167 57.9795H24.8701V59.4364H23.4167V57.9795Z" fill="white"/>
<path d="M23.4167 59.4312H24.8701V60.8885H23.4167V59.4312Z" fill="white"/>
<path d="M23.4167 62.3506H24.8701V63.8075H23.4167V62.3506Z" fill="white"/>
<path d="M23.4167 66.7261H24.8701V68.1834H23.4167V66.7261Z" fill="white"/>
<path d="M21.9548 44.8657H23.4083V46.3227H21.9548V44.8657Z" fill="white"/>
<path d="M21.9548 46.3262H23.4083V47.783H21.9548V46.3262Z" fill="white"/>
<path d="M21.9548 47.7812H23.4083V49.2385H21.9548V47.7812Z" fill="white"/>
<path d="M21.9548 49.2422H23.4083V50.6991H21.9548V49.2422Z" fill="white"/>
<path d="M21.9548 53.604H23.4083V55.0612H21.9548V53.604Z" fill="white"/>
<path d="M21.9548 56.5239H23.4083V57.9808H21.9548V56.5239Z" fill="white"/>
<path d="M21.9548 59.4312H23.4083V60.8885H21.9548V59.4312Z" fill="white"/>
<path d="M21.9548 62.3506H23.4083V63.8075H21.9548V62.3506Z" fill="white"/>
<path d="M20.4927 44.8657H21.9473V46.3227H20.4927V44.8657Z" fill="white"/>
<path d="M20.4927 52.1616H21.9473V53.6185H20.4927V52.1616Z" fill="white"/>
<path d="M20.4927 57.9795H21.9473V59.4364H20.4927V57.9795Z" fill="white"/>
<path d="M20.4927 59.4312H21.9473V60.8885H20.4927V59.4312Z" fill="white"/>
<path d="M20.4927 60.8911H21.9473V62.3485H20.4927V60.8911Z" fill="white"/>
<path d="M78.073 27.3848H79.5277V28.8418H78.073V27.3848Z" fill="white"/>
<path d="M78.073 30.3008H79.5277V31.7578H78.073V30.3008Z" fill="white"/>
<path d="M78.073 31.7529H79.5277V33.21H78.073V31.7529Z" fill="white"/>
<path d="M78.073 37.5791H79.5277V39.036H78.073V37.5791Z" fill="white"/>
<path d="M78.073 40.4985H79.5277V41.9554H78.073V40.4985Z" fill="white"/>
<path d="M78.073 41.9507H79.5277V43.408H78.073V41.9507Z" fill="white"/>
<path d="M78.073 46.3262H79.5277V47.783H78.073V46.3262Z" fill="white"/>
<path d="M78.073 47.7812H79.5277V49.2385H78.073V47.7812Z" fill="white"/>
<path d="M78.073 52.1616H79.5277V53.6185H78.073V52.1616Z" fill="white"/>
<path d="M78.073 55.0645H79.5277V56.5217H78.073V55.0645Z" fill="white"/>
<path d="M78.073 56.5239H79.5277V57.9808H78.073V56.5239Z" fill="white"/>
<path d="M78.073 57.9795H79.5277V59.4364H78.073V57.9795Z" fill="white"/>
<path d="M78.073 60.8911H79.5277V62.3485H78.073V60.8911Z" fill="white"/>
<path d="M78.073 65.2656H79.5277V66.723H78.073V65.2656Z" fill="white"/>
<path d="M78.073 68.186H79.5277V69.643H78.073V68.186Z" fill="white"/>
<path d="M79.5413 31.7529H80.9947V33.21H79.5413V31.7529Z" fill="white"/>
<path d="M79.5413 34.6636H80.9947V36.1206H79.5413V34.6636Z" fill="white"/>
<path d="M79.5413 36.1187H80.9947V37.5758H79.5413V36.1187Z" fill="white"/>
<path d="M79.5413 39.0391H80.9947V40.4959H79.5413V39.0391Z" fill="white"/>
<path d="M79.5413 46.3262H80.9947V47.783H79.5413V46.3262Z" fill="white"/>
<path d="M79.5413 47.7812H80.9947V49.2385H79.5413V47.7812Z" fill="white"/>
<path d="M79.5413 49.2422H80.9947V50.6991H79.5413V49.2422Z" fill="white"/>
<path d="M79.5413 50.688H80.9947V52.1449H79.5413V50.688Z" fill="white"/>
<path d="M79.5413 52.1616H80.9947V53.6185H79.5413V52.1616Z" fill="white"/>
<path d="M79.5413 57.9795H80.9947V59.4364H79.5413V57.9795Z" fill="white"/>
<path d="M79.5413 62.3506H80.9947V63.8075H79.5413V62.3506Z" fill="white"/>
<path d="M79.5413 66.7261H80.9947V68.1834H79.5413V66.7261Z" fill="white"/>
<path d="M79.5413 68.186H80.9947V69.643H79.5413V68.186Z" fill="white"/>
<path d="M79.5413 69.6294H80.9947V71.0863H79.5413V69.6294Z" fill="white"/>
<path d="M80.9854 31.7529H82.4388V33.21H80.9854V31.7529Z" fill="white"/>
<path d="M80.9854 36.1187H82.4388V37.5758H80.9854V36.1187Z" fill="white"/>
<path d="M80.9854 39.0391H82.4388V40.4959H80.9854V39.0391Z" fill="white"/>
<path d="M80.9854 41.9507H82.4388V43.408H80.9854V41.9507Z" fill="white"/>
<path d="M80.9854 43.4067H82.4388V44.8637H80.9854V43.4067Z" fill="white"/>
<path d="M80.9854 44.8657H82.4388V46.3227H80.9854V44.8657Z" fill="white"/>
<path d="M80.9854 47.7812H82.4388V49.2385H80.9854V47.7812Z" fill="white"/>
<path d="M80.9854 49.2422H82.4388V50.6991H80.9854V49.2422Z" fill="white"/>
<path d="M80.9854 53.604H82.4388V55.0612H80.9854V53.604Z" fill="white"/>
<path d="M80.9854 62.3506H82.4388V63.8075H80.9854V62.3506Z" fill="white"/>
<path d="M80.9854 63.811H82.4388V65.2679H80.9854V63.811Z" fill="white"/>
<path d="M80.9854 66.7261H82.4388V68.1834H80.9854V66.7261Z" fill="white"/>
<path d="M80.9854 68.186H82.4388V69.643H80.9854V68.186Z" fill="white"/>
<path d="M82.4412 36.1187H83.8958V37.5758H82.4412V36.1187Z" fill="white"/>
<path d="M82.4412 39.0391H83.8958V40.4959H82.4412V39.0391Z" fill="white"/>
<path d="M82.4412 40.4985H83.8958V41.9554H82.4412V40.4985Z" fill="white"/>
<path d="M82.4412 43.4067H83.8958V44.8637H82.4412V43.4067Z" fill="white"/>
<path d="M82.4412 47.7812H83.8958V49.2385H82.4412V47.7812Z" fill="white"/>
<path d="M82.4412 49.2422H83.8958V50.6991H82.4412V49.2422Z" fill="white"/>
<path d="M82.4412 53.604H83.8958V55.0612H82.4412V53.604Z" fill="white"/>
<path d="M82.4412 55.0645H83.8958V56.5217H82.4412V55.0645Z" fill="white"/>
<path d="M82.4412 60.8911H83.8958V62.3485H82.4412V60.8911Z" fill="white"/>
<path d="M82.4412 62.3506H83.8958V63.8075H82.4412V62.3506Z" fill="white"/>
<path d="M82.4412 65.2656H83.8958V66.723H82.4412V65.2656Z" fill="white"/>
<path d="M83.9041 36.1187H85.3586V37.5758H83.9041V36.1187Z" fill="white"/>
<path d="M83.9041 39.0391H85.3586V40.4959H83.9041V39.0391Z" fill="white"/>
<path d="M83.9041 40.4985H85.3586V41.9554H83.9041V40.4985Z" fill="white"/>
<path d="M83.9041 44.8657H85.3586V46.3227H83.9041V44.8657Z" fill="white"/>
<path d="M83.9041 47.7812H85.3586V49.2385H83.9041V47.7812Z" fill="white"/>
<path d="M83.9041 49.2422H85.3586V50.6991H83.9041V49.2422Z" fill="white"/>
<path d="M83.9041 50.688H85.3586V52.1449H83.9041V50.688Z" fill="white"/>
<path d="M83.9041 52.1616H85.3586V53.6185H83.9041V52.1616Z" fill="white"/>
<path d="M83.9041 53.604H85.3586V55.0612H83.9041V53.604Z" fill="white"/>
<path d="M83.9041 55.0645H85.3586V56.5217H83.9041V55.0645Z" fill="white"/>
<path d="M83.9041 56.5239H85.3586V57.9808H83.9041V56.5239Z" fill="white"/>
<path d="M83.9041 60.8911H85.3586V62.3485H83.9041V60.8911Z" fill="white"/>
<path d="M85.3296 40.4985H86.7831V41.9554H85.3296V40.4985Z" fill="white"/>
<path d="M85.3296 41.9507H86.7831V43.408H85.3296V41.9507Z" fill="white"/>
<path d="M85.3296 43.4067H86.7831V44.8637H85.3296V43.4067Z" fill="white"/>
<path d="M85.3296 46.3262H86.7831V47.783H85.3296V46.3262Z" fill="white"/>
<path d="M85.3296 47.7812H86.7831V49.2385H85.3296V47.7812Z" fill="white"/>
<path d="M85.3296 53.604H86.7831V55.0612H85.3296V53.604Z" fill="white"/>
<path d="M86.8042 49.2422H88.2577V50.6991H86.8042V49.2422Z" fill="white"/>
<path d="M29.887 75.6616H31.3416V77.1189H29.887V75.6616Z" fill="white"/>
<path d="M31.3491 77.1084H32.8025V78.5656H31.3491V77.1084Z" fill="white"/>
<path d="M32.8057 75.6616H34.2603V77.1189H32.8057V75.6616Z" fill="white"/>
<path d="M37.1624 75.6616H38.6158V77.1189H37.1624V75.6616Z" fill="white"/>
<path d="M37.1624 77.1084H38.6158V78.5656H37.1624V77.1084Z" fill="white"/>
<path d="M38.6182 75.6616H40.0728V77.1189H38.6182V75.6616Z" fill="white"/>
<path d="M38.6182 78.5815H40.0728V80.0384H38.6182V78.5815Z" fill="white"/>
<path d="M40.0686 75.6616H41.5233V77.1189H40.0686V75.6616Z" fill="white"/>
<path d="M40.0686 77.1084H41.5233V78.5656H40.0686V77.1084Z" fill="white"/>
<path d="M41.5308 77.1084H42.9842V78.5656H41.5308V77.1084Z" fill="white"/>
<path d="M41.5308 80.0249H42.9842V81.4818H41.5308V80.0249Z" fill="white"/>
<path d="M41.5308 81.4849H42.9842V82.9421H41.5308V81.4849Z" fill="white"/>
<path d="M42.9927 75.6616H44.4462V77.1189H42.9927V75.6616Z" fill="white"/>
<path d="M42.9927 78.5815H44.4462V80.0384H42.9927V78.5815Z" fill="white"/>
<path d="M44.4431 80.0249H45.8978V81.4818H44.4431V80.0249Z" fill="white"/>
<path d="M44.4431 82.9443H45.8978V84.4016H44.4431V82.9443Z" fill="white"/>
<path d="M45.906 81.4849H47.3594V82.9421H45.906V81.4849Z" fill="white"/>
<path d="M45.906 82.9443H47.3594V84.4016H45.906V82.9443Z" fill="white"/>
<path d="M47.344 75.6616H48.7975V77.1189H47.344V75.6616Z" fill="white"/>
<path d="M47.344 78.5815H48.7975V80.0384H47.344V78.5815Z" fill="white"/>
<path d="M47.344 80.0249H48.7975V81.4818H47.344V80.0249Z" fill="white"/>
<path d="M48.8008 82.9443H50.2554V84.4016H48.8008V82.9443Z" fill="white"/>
<path d="M50.2627 75.6616H51.7173V77.1189H50.2627V75.6616Z" fill="white"/>
<path d="M50.2627 77.1084H51.7173V78.5656H50.2627V77.1084Z" fill="white"/>
<path d="M50.2627 78.5815H51.7173V80.0384H50.2627V78.5815Z" fill="white"/>
<path d="M50.2627 82.9443H51.7173V84.4016H50.2627V82.9443Z" fill="white"/>
<path d="M51.7124 75.6616H53.1658V77.1189H51.7124V75.6616Z" fill="white"/>
<path d="M51.7124 81.4849H53.1658V82.9421H51.7124V81.4849Z" fill="white"/>
<path d="M51.7124 82.9443H53.1658V84.4016H51.7124V82.9443Z" fill="white"/>
<path d="M51.7124 84.4048H53.1658V85.8617H51.7124V84.4048Z" fill="white"/>
<path d="M53.1753 78.5815H54.63V80.0384H53.1753V78.5815Z" fill="white"/>
<path d="M53.1753 80.0249H54.63V81.4818H53.1753V80.0249Z" fill="white"/>
<path d="M53.1753 82.9443H54.63V84.4016H53.1753V82.9443Z" fill="white"/>
<path d="M53.1753 84.4048H54.63V85.8617H53.1753V84.4048Z" fill="white"/>
<path d="M54.6311 77.1084H56.0858V78.5656H54.6311V77.1084Z" fill="white"/>
<path d="M54.6311 80.0249H56.0858V81.4818H54.6311V80.0249Z" fill="white"/>
<path d="M56.0635 77.1084H57.5181V78.5656H56.0635V77.1084Z" fill="white"/>
<path d="M56.0635 80.0249H57.5181V81.4818H56.0635V80.0249Z" fill="white"/>
<path d="M56.0635 81.4849H57.5181V82.9421H56.0635V81.4849Z" fill="white"/>
<path d="M56.0635 82.9443H57.5181V84.4016H56.0635V82.9443Z" fill="white"/>
<path d="M57.5444 75.6616H58.9979V77.1189H57.5444V75.6616Z" fill="white"/>
<path d="M57.5444 77.1084H58.9979V78.5656H57.5444V77.1084Z" fill="white"/>
<path d="M57.5444 78.5815H58.9979V80.0384H57.5444V78.5815Z" fill="white"/>
<path d="M57.5444 81.4849H58.9979V82.9421H57.5444V81.4849Z" fill="white"/>
<path d="M57.5444 82.9443H58.9979V84.4016H57.5444V82.9443Z" fill="white"/>
<path d="M58.9814 75.6616H60.4348V77.1189H58.9814V75.6616Z" fill="white"/>
<path d="M58.9814 80.0249H60.4348V81.4818H58.9814V80.0249Z" fill="white"/>
<path d="M60.438 78.5815H61.8926V80.0384H60.438V78.5815Z" fill="white"/>
<path d="M60.438 82.9443H61.8926V84.4016H60.438V82.9443Z" fill="white"/>
<path d="M61.8813 75.6616H63.336V77.1189H61.8813V75.6616Z" fill="white"/>
<path d="M61.8813 78.5815H63.336V80.0384H61.8813V78.5815Z" fill="white"/>
<path d="M61.8813 81.4849H63.336V82.9421H61.8813V81.4849Z" fill="white"/>
<path d="M61.8813 82.9443H63.336V84.4016H61.8813V82.9443Z" fill="white"/>
<path d="M63.3318 75.6616H64.7853V77.1189H63.3318V75.6616Z" fill="white"/>
<path d="M63.3318 80.0249H64.7853V81.4818H63.3318V80.0249Z" fill="white"/>
<path d="M64.7886 75.6616H66.2432V77.1189H64.7886V75.6616Z" fill="white"/>
<path d="M64.7886 81.4849H66.2432V82.9421H64.7886V81.4849Z" fill="white"/>
<path d="M66.2505 75.6616H67.7051V77.1189H66.2505V75.6616Z" fill="white"/>
<path d="M67.7073 78.5815H69.1608V80.0384H67.7073V78.5815Z" fill="white"/>
<path d="M67.7073 80.0249H69.1608V81.4818H67.7073V80.0249Z" fill="white"/>
<path d="M69.1631 75.6616H70.6166V77.1189H69.1631V75.6616Z" fill="white"/>
<path d="M70.626 75.6616H72.0805V77.1189H70.626V75.6616Z" fill="white"/>
<path d="M70.626 77.1084H72.0805V78.5656H70.626V77.1084Z" fill="white"/>
<path d="M70.626 78.5815H72.0805V80.0384H70.626V78.5815Z" fill="white"/>
<path d="M72.0576 75.6616H73.5123V77.1189H72.0576V75.6616Z" fill="white"/>
<path d="M73.5195 75.6616H74.973V77.1189H73.5195V75.6616Z" fill="white"/>
<path d="M74.9753 75.6616H76.4287V77.1189H74.9753V75.6616Z" fill="white"/>
<path d="M31.3491 25.2417H32.8025V26.6987H31.3491V25.2417Z" fill="white"/>
<path d="M32.8057 25.2417H34.2603V26.6987H32.8057V25.2417Z" fill="white"/>
<path d="M32.8057 23.7812H34.2603V25.2382H32.8057V23.7812Z" fill="white"/>
<path d="M34.2625 23.7812H35.7171V25.2382H34.2625V23.7812Z" fill="white"/>
<path d="M37.1624 25.2417H38.6158V26.6987H37.1624V25.2417Z" fill="white"/>
<path d="M38.6182 25.2417H40.0728V26.6987H38.6182V25.2417Z" fill="white"/>
<path d="M38.6182 23.7812H40.0728V25.2382H38.6182V23.7812Z" fill="white"/>
<path d="M38.6182 20.8789H40.0728V22.336H38.6182V20.8789Z" fill="white"/>
<path d="M40.0686 22.3389H41.5233V23.796H40.0686V22.3389Z" fill="white"/>
<path d="M40.0686 20.8789H41.5233V22.336H40.0686V20.8789Z" fill="white"/>
<path d="M41.5308 19.4194H42.9842V20.8765H41.5308V19.4194Z" fill="white"/>
<path d="M42.9927 25.2417H44.4462V26.6987H42.9927V25.2417Z" fill="white"/>
<path d="M42.9927 22.3389H44.4462V23.796H42.9927V22.3389Z" fill="white"/>
<path d="M42.9927 20.8789H44.4462V22.336H42.9927V20.8789Z" fill="white"/>
<path d="M42.9927 19.4194H44.4462V20.8765H42.9927V19.4194Z" fill="white"/>
<path d="M44.4431 25.2417H45.8978V26.6987H44.4431V25.2417Z" fill="white"/>
<path d="M44.4431 23.7812H45.8978V25.2382H44.4431V23.7812Z" fill="white"/>
<path d="M44.4431 19.4194H45.8978V20.8765H44.4431V19.4194Z" fill="white"/>
<path d="M44.4431 17.9629H45.8978V19.42H44.4431V17.9629Z" fill="white"/>
<path d="M45.906 25.2417H47.3594V26.6987H45.906V25.2417Z" fill="white"/>
<path d="M45.906 20.8789H47.3594V22.336H45.906V20.8789Z" fill="white"/>
<path d="M45.906 19.4194H47.3594V20.8765H45.906V19.4194Z" fill="white"/>
<path d="M47.344 25.2417H48.7975V26.6987H47.344V25.2417Z" fill="white"/>
<path d="M47.344 22.3389H48.7975V23.796H47.344V22.3389Z" fill="white"/>
<path d="M47.344 20.8789H48.7975V22.336H47.344V20.8789Z" fill="white"/>
<path d="M47.344 19.4194H48.7975V20.8765H47.344V19.4194Z" fill="white"/>
<path d="M47.344 17.9629H48.7975V19.42H47.344V17.9629Z" fill="white"/>
<path d="M48.8008 25.2417H50.2554V26.6987H48.8008V25.2417Z" fill="white"/>
<path d="M48.8008 23.7812H50.2554V25.2382H48.8008V23.7812Z" fill="white"/>
<path d="M48.8008 22.3389H50.2554V23.796H48.8008V22.3389Z" fill="white"/>
<path d="M48.8008 19.4194H50.2554V20.8765H48.8008V19.4194Z" fill="white"/>
<path d="M48.8008 17.9629H50.2554V19.42H48.8008V17.9629Z" fill="white"/>
<path d="M50.2627 25.2417H51.7173V26.6987H50.2627V25.2417Z" fill="white"/>
<path d="M50.2627 23.7812H51.7173V25.2382H50.2627V23.7812Z" fill="white"/>
<path d="M50.2627 20.8789H51.7173V22.336H50.2627V20.8789Z" fill="white"/>
<path d="M50.2627 19.4194H51.7173V20.8765H50.2627V19.4194Z" fill="white"/>
<path d="M51.7124 25.2417H53.1658V26.6987H51.7124V25.2417Z" fill="white"/>
<path d="M51.7124 22.3389H53.1658V23.796H51.7124V22.3389Z" fill="white"/>
<path d="M51.7124 20.8789H53.1658V22.336H51.7124V20.8789Z" fill="white"/>
<path d="M51.7124 19.4194H53.1658V20.8765H51.7124V19.4194Z" fill="white"/>
<path d="M53.1753 20.8789H54.63V22.336H53.1753V20.8789Z" fill="white"/>
<path d="M53.1753 19.4194H54.63V20.8765H53.1753V19.4194Z" fill="white"/>
<path d="M53.1753 17.9629H54.63V19.42H53.1753V17.9629Z" fill="white"/>
<path d="M53.1753 16.5034H54.63V17.9604H53.1753V16.5034Z" fill="white"/>
<path d="M54.6311 25.2417H56.0858V26.6987H54.6311V25.2417Z" fill="white"/>
<path d="M54.6311 22.3389H56.0858V23.796H54.6311V22.3389Z" fill="white"/>
<path d="M54.6311 20.8789H56.0858V22.336H54.6311V20.8789Z" fill="white"/>
<path d="M54.6311 17.9629H56.0858V19.42H54.6311V17.9629Z" fill="white"/>
<path d="M54.6311 16.5034H56.0858V17.9604H54.6311V16.5034Z" fill="white"/>
<path d="M56.0635 25.2417H57.5181V26.6987H56.0635V25.2417Z" fill="white"/>
<path d="M56.0635 22.3389H57.5181V23.796H56.0635V22.3389Z" fill="white"/>
<path d="M56.0635 20.8789H57.5181V22.336H56.0635V20.8789Z" fill="white"/>
<path d="M56.0635 17.9629H57.5181V19.42H56.0635V17.9629Z" fill="white"/>
<path d="M57.5444 23.7812H58.9979V25.2382H57.5444V23.7812Z" fill="white"/>
<path d="M57.5444 22.3389H58.9979V23.796H57.5444V22.3389Z" fill="white"/>
<path d="M57.5444 20.8789H58.9979V22.336H57.5444V20.8789Z" fill="white"/>
<path d="M58.9814 19.4194H60.4348V20.8765H58.9814V19.4194Z" fill="white"/>
<path d="M58.9814 17.9629H60.4348V19.42H58.9814V17.9629Z" fill="white"/>
<path d="M60.438 25.2417H61.8926V26.6987H60.438V25.2417Z" fill="white"/>
<path d="M60.438 20.8789H61.8926V22.336H60.438V20.8789Z" fill="white"/>
<path d="M60.438 19.4194H61.8926V20.8765H60.438V19.4194Z" fill="white"/>
<path d="M61.8813 25.2417H63.336V26.6987H61.8813V25.2417Z" fill="white"/>
<path d="M61.8813 23.7812H63.336V25.2382H61.8813V23.7812Z" fill="white"/>
<path d="M61.8813 22.3389H63.336V23.796H61.8813V22.3389Z" fill="white"/>
<path d="M61.8813 20.8789H63.336V22.336H61.8813V20.8789Z" fill="white"/>
<path d="M61.8813 19.4194H63.336V20.8765H61.8813V19.4194Z" fill="white"/>
<path d="M61.8813 17.9629H63.336V19.42H61.8813V17.9629Z" fill="white"/>
<path d="M63.3318 25.2417H64.7853V26.6987H63.3318V25.2417Z" fill="white"/>
<path d="M63.3318 20.8789H64.7853V22.336H63.3318V20.8789Z" fill="white"/>
<path d="M63.3318 17.9629H64.7853V19.42H63.3318V17.9629Z" fill="white"/>
<path d="M64.7886 25.2417H66.2432V26.6987H64.7886V25.2417Z" fill="white"/>
<path d="M64.7886 23.7812H66.2432V25.2382H64.7886V23.7812Z" fill="white"/>
<path d="M64.7886 22.3389H66.2432V23.796H64.7886V22.3389Z" fill="white"/>
<path d="M64.7886 20.8789H66.2432V22.336H64.7886V20.8789Z" fill="white"/>
<path d="M66.2505 25.2417H67.7051V26.6987H66.2505V25.2417Z" fill="white"/>
<path d="M66.2505 22.3389H67.7051V23.796H66.2505V22.3389Z" fill="white"/>
<path d="M66.2505 20.8789H67.7051V22.336H66.2505V20.8789Z" fill="white"/>
<path d="M66.2505 19.4194H67.7051V20.8765H66.2505V19.4194Z" fill="white"/>
<path d="M67.7073 23.7812H69.1608V25.2382H67.7073V23.7812Z" fill="white"/>
<path d="M67.7073 22.3389H69.1608V23.796H67.7073V22.3389Z" fill="white"/>
<path d="M67.7073 20.8789H69.1608V22.336H67.7073V20.8789Z" fill="white"/>
<path d="M69.1631 25.2417H70.6166V26.6987H69.1631V25.2417Z" fill="white"/>
<path d="M69.1631 23.7812H70.6166V25.2382H69.1631V23.7812Z" fill="white"/>
<path d="M69.1631 20.8789H70.6166V22.336H69.1631V20.8789Z" fill="white"/>
<path d="M70.626 25.2417H72.0805V26.6987H70.626V25.2417Z" fill="white"/>
<path d="M70.626 23.7812H72.0805V25.2382H70.626V23.7812Z" fill="white"/>
<path d="M70.626 22.3389H72.0805V23.796H70.626V22.3389Z" fill="white"/>
<path d="M74.9753 25.2417H76.4287V26.6987H74.9753V25.2417Z" fill="white"/>
<path d="M47.0683 27.6196H45.1868V29.5043H47.0683V27.6196Z" fill="white"/>
<path d="M48.9423 27.6196H47.0608V29.5043H48.9423V27.6196Z" fill="white"/>
<path d="M56.476 27.6196H54.5945V29.5043H56.476V27.6196Z" fill="white"/>
<path d="M62.1229 27.6196H60.2415V29.5043H62.1229V27.6196Z" fill="white"/>
<path d="M47.0683 29.5083H45.1868V31.393H47.0683V29.5083Z" fill="white"/>
<path d="M50.8298 29.5083H48.9482V31.393H50.8298V29.5083Z" fill="white"/>
<path d="M54.5827 29.5083H52.7024V31.393H54.5827V29.5083Z" fill="white"/>
<path d="M56.476 29.5083H54.5945V31.393H56.476V29.5083Z" fill="white"/>
<path d="M62.1229 29.5083H60.2415V31.393H62.1229V29.5083Z" fill="white"/>
<path d="M48.9423 31.3911H47.0608V33.2758H48.9423V31.3911Z" fill="white"/>
<path d="M54.5827 31.3911H52.7024V33.2758H54.5827V31.3911Z" fill="white"/>
<path d="M56.4748 31.3911H54.5945V33.2758H56.4748V31.3911Z" fill="white"/>
<path d="M58.35 31.3911H56.4685V33.2758H58.35V31.3911Z" fill="white"/>
<path d="M60.2426 31.3911H58.3611V33.2758H60.2426V31.3911Z" fill="white"/>
<path d="M62.1229 31.3911H60.2415V33.2758H62.1229V31.3911Z" fill="white"/>
<path d="M47.0683 33.2793H45.1868V35.164H47.0683V33.2793Z" fill="white"/>
<path d="M48.9423 33.2793H47.0608V35.164H48.9423V33.2793Z" fill="white"/>
<path d="M50.8298 33.2793H48.9482V35.164H50.8298V33.2793Z" fill="white"/>
<path d="M52.7016 33.2793H50.8213V35.164H52.7016V33.2793Z" fill="white"/>
<path d="M56.4748 33.2793H54.5945V35.164H56.4748V33.2793Z" fill="white"/>
<path d="M58.35 33.2793H56.4685V35.164H58.35V33.2793Z" fill="white"/>
<path d="M60.2414 33.2793H58.3611V35.164H60.2414V33.2793Z" fill="white"/>
<path d="M48.9423 35.1631H47.0608V37.0478H48.9423V35.1631Z" fill="white"/>
<path d="M52.7016 35.1631H50.8213V37.0478H52.7016V35.1631Z" fill="white"/>
<path d="M56.476 35.1631H54.5945V37.0478H56.476V35.1631Z" fill="white"/>
<path d="M58.35 35.1631H56.4685V37.0478H58.35V35.1631Z" fill="white"/>
<path d="M60.2414 35.1631H58.3611V37.0478H60.2414V35.1631Z" fill="white"/>
<path d="M62.1229 35.1631H60.2415V37.0478H62.1229V35.1631Z" fill="white"/>
<path d="M48.9423 37.0425H47.0608V38.9274H48.9423V37.0425Z" fill="white"/>
<path d="M56.4748 37.0425H54.5945V38.9274H56.4748V37.0425Z" fill="white"/>
<path d="M58.35 37.0425H56.4685V38.9274H58.35V37.0425Z" fill="white"/>
<path d="M62.1229 37.0425H60.2415V38.9274H62.1229V37.0425Z" fill="white"/>
<path d="M47.0683 38.9258H45.1868V40.8104H47.0683V38.9258Z" fill="white"/>
<path d="M50.8298 38.9258H48.9482V40.8104H50.8298V38.9258Z" fill="white"/>
<path d="M54.5827 38.9258H52.7024V40.8104H54.5827V38.9258Z" fill="white"/>
<path d="M58.35 38.9258H56.4685V40.8104H58.35V38.9258Z" fill="white"/>
<path d="M62.1229 38.9258H60.2415V40.8104H62.1229V38.9258Z" fill="white"/>
<path d="M47.0683 40.814H45.1868V42.6988H47.0683V40.814Z" fill="white"/>
<path d="M60.2414 40.814H58.3611V42.6988H60.2414V40.814Z" fill="white"/>
<path d="M62.1229 40.814H60.2415V42.6988H62.1229V40.814Z" fill="white"/>
<path d="M32.0195 42.7012H30.1392V44.5861H32.0195V42.7012Z" fill="white"/>
<path d="M35.7936 42.7012H33.9121V44.5861H35.7936V42.7012Z" fill="white"/>
<path d="M37.6665 42.7012H35.7861V44.5861H37.6665V42.7012Z" fill="white"/>
<path d="M41.4145 42.7012H39.5342V44.5861H41.4145V42.7012Z" fill="white"/>
<path d="M43.3198 42.7012H41.4395V44.5861H43.3198V42.7012Z" fill="white"/>
<path d="M45.1879 42.7012H43.3064V44.5861H45.1879V42.7012Z" fill="white"/>
<path d="M48.9423 42.7012H47.0608V44.5861H48.9423V42.7012Z" fill="white"/>
<path d="M50.8298 42.7012H48.9482V44.5861H50.8298V42.7012Z" fill="white"/>
<path d="M52.7016 42.7012H50.8213V44.5861H52.7016V42.7012Z" fill="white"/>
<path d="M54.5827 42.7012H52.7024V44.5861H54.5827V42.7012Z" fill="white"/>
<path d="M60.2414 42.7012H58.3611V44.5861H60.2414V42.7012Z" fill="white"/>
<path d="M62.1229 42.7012H60.2415V44.5861H62.1229V42.7012Z" fill="white"/>
<path d="M65.8889 42.7012H64.0073V44.5861H65.8889V42.7012Z" fill="white"/>
<path d="M71.5055 42.7012H69.624V44.5861H71.5055V42.7012Z" fill="white"/>
<path d="M75.2841 42.7012H73.4026V44.5861H75.2841V42.7012Z" fill="white"/>
<path d="M77.157 42.7012H75.2766V44.5861H77.157V42.7012Z" fill="white"/>
<path d="M32.0195 44.5854H30.1392V46.4699H32.0195V44.5854Z" fill="white"/>
<path d="M39.5397 44.5854H37.6594V46.4699H39.5397V44.5854Z" fill="white"/>
<path d="M41.4145 44.5854H39.5342V46.4699H41.4145V44.5854Z" fill="white"/>
<path d="M47.0683 44.5854H45.1868V46.4699H47.0683V44.5854Z" fill="white"/>
<path d="M48.9423 44.5854H47.0608V46.4699H48.9423V44.5854Z" fill="white"/>
<path d="M52.7016 44.5854H50.8213V46.4699H52.7016V44.5854Z" fill="white"/>
<path d="M56.4748 44.5854H54.5945V46.4699H56.4748V44.5854Z" fill="white"/>
<path d="M64.0094 44.5854H62.1279V46.4699H64.0094V44.5854Z" fill="white"/>
<path d="M67.7626 44.5854H65.8823V46.4699H67.7626V44.5854Z" fill="white"/>
<path d="M75.2841 44.5854H73.4026V46.4699H75.2841V44.5854Z" fill="white"/>
<path d="M33.9008 46.4648H32.0193V48.3498H33.9008V46.4648Z" fill="white"/>
<path d="M39.5397 46.4648H37.6594V48.3498H39.5397V46.4648Z" fill="white"/>
<path d="M41.4145 46.4648H39.5342V48.3498H41.4145V46.4648Z" fill="white"/>
<path d="M43.3198 46.4648H41.4395V48.3498H43.3198V46.4648Z" fill="white"/>
<path d="M45.1879 46.4648H43.3064V48.3498H45.1879V46.4648Z" fill="white"/>
<path d="M48.9423 46.4648H47.0608V48.3498H48.9423V46.4648Z" fill="white"/>
<path d="M54.5827 46.4648H52.7024V48.3498H54.5827V46.4648Z" fill="white"/>
<path d="M56.476 46.4648H54.5945V48.3498H56.476V46.4648Z" fill="white"/>
<path d="M62.1229 46.4648H60.2415V48.3498H62.1229V46.4648Z" fill="white"/>
<path d="M67.7626 46.4648H65.8823V48.3498H67.7626V46.4648Z" fill="white"/>
<path d="M69.6303 46.4648H67.75V48.3498H69.6303V46.4648Z" fill="white"/>
<path d="M32.0195 48.3555H30.1392V50.2403H32.0195V48.3555Z" fill="white"/>
<path d="M33.9008 48.3555H32.0193V50.2403H33.9008V48.3555Z" fill="white"/>
<path d="M41.4145 48.3555H39.5342V50.2403H41.4145V48.3555Z" fill="white"/>
<path d="M45.1879 48.3555H43.3064V50.2403H45.1879V48.3555Z" fill="white"/>
<path d="M47.0683 48.3555H45.1868V50.2403H47.0683V48.3555Z" fill="white"/>
<path d="M48.9423 48.3555H47.0608V50.2403H48.9423V48.3555Z" fill="white"/>
<path d="M50.8298 48.3555H48.9482V50.2403H50.8298V48.3555Z" fill="white"/>
<path d="M52.7016 48.3555H50.8213V50.2403H52.7016V48.3555Z" fill="white"/>
<path d="M54.5827 48.3555H52.7024V50.2403H54.5827V48.3555Z" fill="white"/>
<path d="M56.476 48.3555H54.5945V50.2403H56.476V48.3555Z" fill="white"/>
<path d="M58.35 48.3555H56.4685V50.2403H58.35V48.3555Z" fill="white"/>
<path d="M63.9833 48.3555H62.103V50.2403H63.9833V48.3555Z" fill="white"/>
<path d="M67.7626 48.3555H65.8823V50.2403H67.7626V48.3555Z" fill="white"/>
<path d="M71.5055 48.3555H69.624V50.2403H71.5055V48.3555Z" fill="white"/>
<path d="M73.411 48.3555H71.5295V50.2403H73.411V48.3555Z" fill="white"/>
<path d="M33.9008 50.2402H32.0193V52.1247H33.9008V50.2402Z" fill="white"/>
<path d="M35.7936 50.2402H33.9121V52.1247H35.7936V50.2402Z" fill="white"/>
<path d="M37.6665 50.2402H35.7861V52.1247H37.6665V50.2402Z" fill="white"/>
<path d="M43.3209 50.2402H41.4395V52.1247H43.3209V50.2402Z" fill="white"/>
<path d="M47.0683 50.2402H45.1868V52.1247H47.0683V50.2402Z" fill="white"/>
<path d="M48.9423 50.2402H47.0608V52.1247H48.9423V50.2402Z" fill="white"/>
<path d="M50.8298 50.2402H48.9482V52.1247H50.8298V50.2402Z" fill="white"/>
<path d="M64.0094 50.2402H62.1279V52.1247H64.0094V50.2402Z" fill="white"/>
<path d="M65.8889 50.2402H64.0073V52.1247H65.8889V50.2402Z" fill="white"/>
<path d="M67.7626 50.2402H65.8823V52.1247H67.7626V50.2402Z" fill="white"/>
<path d="M69.6303 50.2402H67.75V52.1247H69.6303V50.2402Z" fill="white"/>
<path d="M73.411 50.2402H71.5295V52.1247H73.411V50.2402Z" fill="white"/>
<path d="M75.2841 50.2402H73.4026V52.1247H75.2841V50.2402Z" fill="white"/>
<path d="M77.157 50.2402H75.2766V52.1247H77.157V50.2402Z" fill="white"/>
<path d="M33.9008 52.1235H32.0193V54.0084H33.9008V52.1235Z" fill="white"/>
<path d="M41.4145 52.1235H39.5342V54.0084H41.4145V52.1235Z" fill="white"/>
<path d="M47.0683 52.1235H45.1868V54.0084H47.0683V52.1235Z" fill="white"/>
<path d="M48.9423 52.1235H47.0608V54.0084H48.9423V52.1235Z" fill="white"/>
<path d="M50.8298 52.1235H48.9482V54.0084H50.8298V52.1235Z" fill="white"/>
<path d="M52.7016 52.1235H50.8213V54.0084H52.7016V52.1235Z" fill="white"/>
<path d="M56.476 52.1235H54.5945V54.0084H56.476V52.1235Z" fill="white"/>
<path d="M58.35 52.1235H56.4685V54.0084H58.35V52.1235Z" fill="white"/>
<path d="M60.2414 52.1235H58.3611V54.0084H60.2414V52.1235Z" fill="white"/>
<path d="M62.1229 52.1235H60.2415V54.0084H62.1229V52.1235Z" fill="white"/>
<path d="M63.9833 52.1235H62.103V54.0084H63.9833V52.1235Z" fill="white"/>
<path d="M65.8889 52.1235H64.0073V54.0084H65.8889V52.1235Z" fill="white"/>
<path d="M67.7626 52.1235H65.8823V54.0084H67.7626V52.1235Z" fill="white"/>
<path d="M69.6303 52.1235H67.75V54.0084H69.6303V52.1235Z" fill="white"/>
<path d="M77.157 52.1235H75.2766V54.0084H77.157V52.1235Z" fill="white"/>
<path d="M33.9008 54.0029H32.0193V55.8879H33.9008V54.0029Z" fill="white"/>
<path d="M35.7936 54.0029H33.9121V55.8879H35.7936V54.0029Z" fill="white"/>
<path d="M41.4145 54.0029H39.5342V55.8879H41.4145V54.0029Z" fill="white"/>
<path d="M43.3198 54.0029H41.4395V55.8879H43.3198V54.0029Z" fill="white"/>
<path d="M45.1867 54.0029H43.3064V55.8879H45.1867V54.0029Z" fill="white"/>
<path d="M47.0683 54.0029H45.1868V55.8879H47.0683V54.0029Z" fill="white"/>
<path d="M50.8298 54.0029H48.9482V55.8879H50.8298V54.0029Z" fill="white"/>
<path d="M54.5827 54.0029H52.7024V55.8879H54.5827V54.0029Z" fill="white"/>
<path d="M58.35 54.0029H56.4685V55.8879H58.35V54.0029Z" fill="white"/>
<path d="M65.8889 54.0029H64.0073V55.8879H65.8889V54.0029Z" fill="white"/>
<path d="M69.6303 54.0029H67.75V55.8879H69.6303V54.0029Z" fill="white"/>
<path d="M73.411 54.0029H71.5295V55.8879H73.411V54.0029Z" fill="white"/>
<path d="M75.2841 54.0029H73.4026V55.8879H75.2841V54.0029Z" fill="white"/>
<path d="M32.0195 55.8984H30.1392V57.783H32.0195V55.8984Z" fill="white"/>
<path d="M45.1879 55.8984H43.3064V57.783H45.1879V55.8984Z" fill="white"/>
<path d="M54.5827 55.8984H52.7024V57.783H54.5827V55.8984Z" fill="white"/>
<path d="M56.476 55.8984H54.5945V57.783H56.476V55.8984Z" fill="white"/>
<path d="M62.1229 55.8984H60.2415V57.783H62.1229V55.8984Z" fill="white"/>
<path d="M63.9833 55.8984H62.103V57.783H63.9833V55.8984Z" fill="white"/>
<path d="M65.8889 55.8984H64.0073V57.783H65.8889V55.8984Z" fill="white"/>
<path d="M67.7626 55.8984H65.8823V57.783H67.7626V55.8984Z" fill="white"/>
<path d="M69.6303 55.8984H67.75V57.783H69.6303V55.8984Z" fill="white"/>
<path d="M77.157 55.8984H75.2766V57.783H77.157V55.8984Z" fill="white"/>
<path d="M35.7936 57.7778H33.9121V59.6628H35.7936V57.7778Z" fill="white"/>
<path d="M37.6665 57.7778H35.7861V59.6628H37.6665V57.7778Z" fill="white"/>
<path d="M41.4145 57.7778H39.5342V59.6628H41.4145V57.7778Z" fill="white"/>
<path d="M43.3209 57.7778H41.4395V59.6628H43.3209V57.7778Z" fill="white"/>
<path d="M45.1867 57.7778H43.3064V59.6628H45.1867V57.7778Z" fill="white"/>
<path d="M47.0683 57.7778H45.1868V59.6628H47.0683V57.7778Z" fill="white"/>
<path d="M50.8298 57.7778H48.9482V59.6628H50.8298V57.7778Z" fill="white"/>
<path d="M52.7016 57.7778H50.8213V59.6628H52.7016V57.7778Z" fill="white"/>
<path d="M60.2414 57.7778H58.3611V59.6628H60.2414V57.7778Z" fill="white"/>
<path d="M62.1229 57.7778H60.2415V59.6628H62.1229V57.7778Z" fill="white"/>
<path d="M64.0094 57.7778H62.1279V59.6628H64.0094V57.7778Z" fill="white"/>
<path d="M65.8889 57.7778H64.0073V59.6628H65.8889V57.7778Z" fill="white"/>
<path d="M67.7626 57.7778H65.8823V59.6628H67.7626V57.7778Z" fill="white"/>
<path d="M69.6303 57.7778H67.75V59.6628H69.6303V57.7778Z" fill="white"/>
<path d="M71.5055 57.7778H69.624V59.6628H71.5055V57.7778Z" fill="white"/>
<path d="M73.411 57.7778H71.5295V59.6628H73.411V57.7778Z" fill="white"/>
<path d="M75.2841 57.7778H73.4026V59.6628H75.2841V57.7778Z" fill="white"/>
<path d="M77.157 57.7778H75.2766V59.6628H77.157V57.7778Z" fill="white"/>
<path d="M47.0683 59.6626H45.1868V61.5474H47.0683V59.6626Z" fill="white"/>
<path d="M50.8298 59.6626H48.9482V61.5474H50.8298V59.6626Z" fill="white"/>
<path d="M54.5827 59.6626H52.7024V61.5474H54.5827V59.6626Z" fill="white"/>
<path d="M56.476 59.6626H54.5945V61.5474H56.476V59.6626Z" fill="white"/>
<path d="M62.1229 59.6626H60.2415V61.5474H62.1229V59.6626Z" fill="white"/>
<path d="M69.6303 59.6626H67.75V61.5474H69.6303V59.6626Z" fill="white"/>
<path d="M73.411 59.6626H71.5295V61.5474H73.411V59.6626Z" fill="white"/>
<path d="M77.157 59.6626H75.2766V61.5474H77.157V59.6626Z" fill="white"/>
<path d="M47.0683 61.5498H45.1868V63.4343H47.0683V61.5498Z" fill="white"/>
<path d="M48.9423 61.5498H47.0608V63.4343H48.9423V61.5498Z" fill="white"/>
<path d="M52.7016 61.5498H50.8213V63.4343H52.7016V61.5498Z" fill="white"/>
<path d="M54.5827 61.5498H52.7024V63.4343H54.5827V61.5498Z" fill="white"/>
<path d="M62.1229 61.5498H60.2415V63.4343H62.1229V61.5498Z" fill="white"/>
<path d="M65.8889 61.5498H64.0073V63.4343H65.8889V61.5498Z" fill="white"/>
<path d="M69.6303 61.5498H67.75V63.4343H69.6303V61.5498Z" fill="white"/>
<path d="M73.411 61.5498H71.5295V63.4343H73.411V61.5498Z" fill="white"/>
<path d="M75.2841 61.5498H73.4026V63.4343H75.2841V61.5498Z" fill="white"/>
<path d="M77.157 61.5498H75.2766V63.4343H77.157V61.5498Z" fill="white"/>
<path d="M47.0683 63.438H45.1868V65.3229H47.0683V63.438Z" fill="white"/>
<path d="M48.9423 63.438H47.0608V65.3229H48.9423V63.438Z" fill="white"/>
<path d="M54.5827 63.438H52.7024V65.3229H54.5827V63.438Z" fill="white"/>
<path d="M60.2426 63.438H58.3611V65.3229H60.2426V63.438Z" fill="white"/>
<path d="M62.1229 63.438H60.2415V65.3229H62.1229V63.438Z" fill="white"/>
<path d="M69.6303 63.438H67.75V65.3229H69.6303V63.438Z" fill="white"/>
<path d="M75.2841 63.438H73.4026V65.3229H75.2841V63.438Z" fill="white"/>
<path d="M48.9423 65.312H47.0608V67.197H48.9423V65.312Z" fill="white"/>
<path d="M50.8298 65.312H48.9482V67.197H50.8298V65.312Z" fill="white"/>
<path d="M52.7016 65.312H50.8213V67.197H52.7016V65.312Z" fill="white"/>
<path d="M54.5827 65.312H52.7024V67.197H54.5827V65.312Z" fill="white"/>
<path d="M56.476 65.312H54.5945V67.197H56.476V65.312Z" fill="white"/>
<path d="M62.1229 65.312H60.2415V67.197H62.1229V65.312Z" fill="white"/>
<path d="M63.9833 65.312H62.103V67.197H63.9833V65.312Z" fill="white"/>
<path d="M65.8889 65.312H64.0073V67.197H65.8889V65.312Z" fill="white"/>
<path d="M67.7626 65.312H65.8823V67.197H67.7626V65.312Z" fill="white"/>
<path d="M69.6303 65.312H67.75V67.197H69.6303V65.312Z" fill="white"/>
<path d="M71.5055 65.312H69.624V67.197H71.5055V65.312Z" fill="white"/>
<path d="M75.2841 65.312H73.4026V67.197H75.2841V65.312Z" fill="white"/>
<path d="M47.0683 67.1958H45.1868V69.0803H47.0683V67.1958Z" fill="white"/>
<path d="M48.9423 67.1958H47.0608V69.0803H48.9423V67.1958Z" fill="white"/>
<path d="M54.5827 67.1958H52.7024V69.0803H54.5827V67.1958Z" fill="white"/>
<path d="M56.4748 67.1958H54.5945V69.0803H56.4748V67.1958Z" fill="white"/>
<path d="M58.35 67.1958H56.4685V69.0803H58.35V67.1958Z" fill="white"/>
<path d="M62.1229 67.1958H60.2415V69.0803H62.1229V67.1958Z" fill="white"/>
<path d="M64.0094 67.1958H62.1279V69.0803H64.0094V67.1958Z" fill="white"/>
<path d="M65.8889 67.1958H64.0073V69.0803H65.8889V67.1958Z" fill="white"/>
<path d="M69.6303 67.1958H67.75V69.0803H69.6303V67.1958Z" fill="white"/>
<path d="M71.5055 67.1958H69.624V69.0803H71.5055V67.1958Z" fill="white"/>
<path d="M73.411 67.1958H71.5295V69.0803H73.411V67.1958Z" fill="white"/>
<path d="M75.2841 67.1958H73.4026V69.0803H75.2841V67.1958Z" fill="white"/>
<path d="M77.157 67.1958H75.2766V69.0803H77.157V67.1958Z" fill="white"/>
<path d="M47.0683 69.0879H45.1868V70.9727H47.0683V69.0879Z" fill="white"/>
<path d="M48.9423 69.0879H47.0608V70.9727H48.9423V69.0879Z" fill="white"/>
<path d="M52.7016 69.0879H50.8213V70.9727H52.7016V69.0879Z" fill="white"/>
<path d="M54.5827 69.0879H52.7024V70.9727H54.5827V69.0879Z" fill="white"/>
<path d="M56.476 69.0879H54.5945V70.9727H56.476V69.0879Z" fill="white"/>
<path d="M62.1229 69.0879H60.2415V70.9727H62.1229V69.0879Z" fill="white"/>
<path d="M63.9833 69.0879H62.103V70.9727H63.9833V69.0879Z" fill="white"/>
<path d="M65.8889 69.0879H64.0073V70.9727H65.8889V69.0879Z" fill="white"/>
<path d="M69.6303 69.0879H67.75V70.9727H69.6303V69.0879Z" fill="white"/>
<path d="M73.411 69.0879H71.5295V70.9727H73.411V69.0879Z" fill="white"/>
<path d="M75.2841 69.0879H73.4026V70.9727H75.2841V69.0879Z" fill="white"/>
<path d="M69.6303 70.9717H67.75V72.8566H69.6303V70.9717Z" fill="white"/>
<path d="M73.411 70.9717H71.5295V72.8566H73.411V70.9717Z" fill="white"/>
<path d="M47.0683 72.855H45.1868V74.7395H47.0683V72.855Z" fill="white"/>
<path d="M54.5827 72.855H52.7024V74.7395H54.5827V72.855Z" fill="white"/>
<path d="M58.35 72.855H56.4685V74.7395H58.35V72.855Z" fill="white"/>
<path d="M63.9833 72.855H62.103V74.7395H63.9833V72.855Z" fill="white"/>
<path d="M67.7626 72.855H65.8823V74.7395H67.7626V72.855Z" fill="white"/>
<path d="M69.6303 72.855H67.75V74.7395H69.6303V72.855Z" fill="white"/>
<path d="M71.5055 72.855H69.624V74.7395H71.5055V72.855Z" fill="white"/>
<path d="M73.411 72.855H71.5295V74.7395H73.411V72.855Z" fill="white"/>
<path d="M75.2841 72.855H73.4026V74.7395H75.2841V72.855Z" fill="white"/>
<path d="M77.157 72.855H75.2766V74.7395H77.157V72.855Z" fill="white"/>
<path d="M36.7167 27.7505C33.1517 27.7505 30.2615 30.6462 30.2615 34.2178C30.2615 37.7894 33.1517 40.6852 36.7167 40.6852C40.2806 40.6852 43.1708 37.7894 43.1708 34.2178C43.1708 30.6462 40.2806 27.7505 36.7167 27.7505ZM36.7167 38.745C34.2247 38.745 32.1978 36.7141 32.1978 34.2178C32.1978 31.7215 34.2247 29.6906 36.7167 29.6906C39.2075 29.6906 41.2345 31.7215 41.2345 34.2178C41.2345 36.7141 39.2075 38.745 36.7167 38.745Z" fill="white"/>
<path d="M70.5787 27.7505C67.0148 27.7505 64.1245 30.6462 64.1245 34.2178C64.1245 37.7894 67.0148 40.6852 70.5787 40.6852C74.1437 40.6852 77.0327 37.7894 77.0327 34.2178C77.0327 30.6462 74.1437 27.7505 70.5787 27.7505ZM70.5787 38.745C68.0879 38.745 66.0609 36.7141 66.0609 34.2178C66.0609 31.7215 68.0879 29.6906 70.5787 29.6906C73.0695 29.6906 75.0964 31.7215 75.0964 34.2178C75.0964 36.7141 73.0695 38.745 70.5787 38.745Z" fill="white"/>
<path d="M36.7167 61.6714C33.1517 61.6714 30.2615 64.567 30.2615 68.1386C30.2615 71.7104 33.1517 74.606 36.7167 74.606C40.2806 74.606 43.1708 71.7104 43.1708 68.1386C43.1708 64.567 40.2806 61.6714 36.7167 61.6714ZM36.7167 72.6657C34.2247 72.6657 32.1978 70.6349 32.1978 68.1386C32.1978 65.6425 34.2247 63.6113 36.7167 63.6113C39.2075 63.6113 41.2345 65.6425 41.2345 68.1386C41.2345 70.6349 39.2075 72.6657 36.7167 72.6657Z" fill="white"/>
<path d="M36.6783 36.9345C38.2057 36.9345 39.4445 35.6935 39.4445 34.1627C39.4445 32.632 38.2057 31.3911 36.6783 31.3911C35.151 31.3911 33.9121 32.632 33.9121 34.1627C33.9121 35.6935 35.151 36.9345 36.6783 36.9345Z" fill="white"/>
<path d="M70.5162 36.9345C72.0436 36.9345 73.2825 35.6935 73.2825 34.1627C73.2825 32.632 72.0436 31.3911 70.5162 31.3911C68.9877 31.3911 67.75 32.632 67.75 34.1627C67.75 35.6935 68.9877 36.9345 70.5162 36.9345Z" fill="white"/>
<path d="M36.6783 70.8556C38.2057 70.8556 39.4445 69.6144 39.4445 68.0836C39.4445 66.5532 38.2057 65.312 36.6783 65.312C35.151 65.312 33.9121 66.5532 33.9121 68.0836C33.9121 69.6144 35.151 70.8556 36.6783 70.8556Z" fill="white"/>
</svg>
