<svg width="346" height="96" viewBox="0 0 346 96" fill="none" xmlns="http://www.w3.org/2000/svg">
<path d="M138.046 75.848C133.99 75.848 130.454 75.198 127.438 73.898C124.422 72.598 122.082 70.778 120.418 68.438C118.806 66.098 118 63.342 118 60.17V58.22C118 57.96 118.078 57.752 118.234 57.596C118.442 57.388 118.676 57.284 118.936 57.284H125.878C126.138 57.284 126.346 57.388 126.502 57.596C126.71 57.752 126.814 57.96 126.814 58.22V59.702C126.814 62.094 127.88 64.096 130.012 65.708C132.144 67.268 135.056 68.048 138.748 68.048C141.92 68.048 144.312 67.372 145.924 66.02C147.536 64.668 148.342 62.926 148.342 60.794C148.342 59.338 147.9 58.116 147.016 57.128C146.132 56.088 144.858 55.152 143.194 54.32C141.582 53.488 139.138 52.448 135.862 51.2C132.17 49.848 129.18 48.574 126.892 47.378C124.604 46.182 122.68 44.57 121.12 42.542C119.612 40.462 118.858 37.888 118.858 34.82C118.858 30.244 120.522 26.63 123.85 23.978C127.178 21.326 131.624 20 137.188 20C141.088 20 144.52 20.676 147.484 22.028C150.5 23.38 152.84 25.278 154.504 27.722C156.168 30.114 157 32.896 157 36.068V37.394C157 37.654 156.896 37.888 156.688 38.096C156.532 38.252 156.324 38.33 156.064 38.33H149.044C148.784 38.33 148.55 38.252 148.342 38.096C148.186 37.888 148.108 37.654 148.108 37.394V36.536C148.108 34.092 147.094 32.038 145.066 30.374C143.09 28.658 140.334 27.8 136.798 27.8C133.938 27.8 131.702 28.398 130.09 29.594C128.53 30.79 127.75 32.48 127.75 34.664C127.75 36.224 128.166 37.498 128.998 38.486C129.83 39.474 131.078 40.384 132.742 41.216C134.406 41.996 136.98 43.01 140.464 44.258C144.156 45.662 147.094 46.936 149.278 48.08C151.514 49.224 153.412 50.836 154.972 52.916C156.584 54.944 157.39 57.492 157.39 60.56C157.39 65.24 155.648 68.958 152.164 71.714C148.732 74.47 144.026 75.848 138.046 75.848Z" fill="#F1F2F2"/>
<path d="M200.042 50.81C200.25 52.11 200.354 53.566 200.354 55.178L200.276 57.596C200.276 58.22 199.964 58.532 199.34 58.532H174.926C174.666 58.532 174.536 58.662 174.536 58.922C174.692 60.638 174.926 61.808 175.238 62.432C176.486 66.176 179.528 68.074 184.364 68.126C187.9 68.126 190.708 66.67 192.788 63.758C192.996 63.446 193.256 63.29 193.568 63.29C193.776 63.29 193.958 63.368 194.114 63.524L198.95 67.502C199.418 67.866 199.496 68.282 199.184 68.75C197.572 71.038 195.414 72.806 192.71 74.054C190.058 75.302 187.094 75.926 183.818 75.926C179.762 75.926 176.304 75.016 173.444 73.196C170.636 71.376 168.582 68.828 167.282 65.552C166.086 62.744 165.488 58.844 165.488 53.852C165.488 50.836 165.8 48.392 166.424 46.52C167.464 42.88 169.414 40.02 172.274 37.94C175.186 35.808 178.67 34.742 182.726 34.742C192.97 34.742 198.742 40.098 200.042 50.81ZM182.726 42.542C180.802 42.542 179.19 43.036 177.89 44.024C176.642 44.96 175.758 46.286 175.238 48.002C174.926 48.886 174.718 50.03 174.614 51.434C174.51 51.694 174.614 51.824 174.926 51.824H190.76C191.02 51.824 191.15 51.694 191.15 51.434C191.046 50.134 190.89 49.146 190.682 48.47C190.214 46.598 189.278 45.142 187.874 44.102C186.522 43.062 184.806 42.542 182.726 42.542Z" fill="#F1F2F2"/>
<path d="M228.513 34.742C232.725 34.742 236.079 35.99 238.575 38.486C241.123 40.982 242.397 44.388 242.397 48.704V74.288C242.397 74.548 242.293 74.782 242.085 74.99C241.929 75.146 241.721 75.224 241.461 75.224H234.285C234.025 75.224 233.791 75.146 233.583 74.99C233.427 74.782 233.349 74.548 233.349 74.288V50.576C233.349 48.184 232.673 46.26 231.321 44.804C229.969 43.296 228.175 42.542 225.939 42.542C223.703 42.542 221.883 43.27 220.479 44.726C219.127 46.182 218.451 48.106 218.451 50.498V74.288C218.451 74.548 218.347 74.782 218.139 74.99C217.983 75.146 217.775 75.224 217.515 75.224H210.339C210.079 75.224 209.845 75.146 209.637 74.99C209.481 74.782 209.403 74.548 209.403 74.288V36.302C209.403 36.042 209.481 35.834 209.637 35.678C209.845 35.47 210.079 35.366 210.339 35.366H217.515C217.775 35.366 217.983 35.47 218.139 35.678C218.347 35.834 218.451 36.042 218.451 36.302V38.798C218.451 38.954 218.503 39.058 218.607 39.11C218.711 39.162 218.789 39.11 218.841 38.954C220.973 36.146 224.197 34.742 228.513 34.742Z" fill="#F1F2F2"/>
<path d="M273.749 41.762C273.749 42.022 273.645 42.256 273.437 42.464C273.281 42.62 273.073 42.698 272.813 42.698H264.857C264.597 42.698 264.467 42.828 264.467 43.088V61.886C264.467 63.862 264.883 65.292 265.715 66.176C266.599 67.06 267.977 67.502 269.849 67.502H272.189C272.449 67.502 272.657 67.606 272.813 67.814C273.021 67.97 273.125 68.178 273.125 68.438V74.288C273.125 74.86 272.813 75.198 272.189 75.302L268.133 75.38C264.025 75.38 260.957 74.678 258.929 73.274C256.901 71.87 255.861 69.218 255.809 65.318V43.088C255.809 42.828 255.679 42.698 255.419 42.698H250.973C250.713 42.698 250.479 42.62 250.271 42.464C250.115 42.256 250.037 42.022 250.037 41.762V36.302C250.037 36.042 250.115 35.834 250.271 35.678C250.479 35.47 250.713 35.366 250.973 35.366H255.419C255.679 35.366 255.809 35.236 255.809 34.976V25.85C255.809 25.59 255.887 25.382 256.043 25.226C256.251 25.018 256.485 24.914 256.745 24.914H263.531C263.791 24.914 263.999 25.018 264.155 25.226C264.363 25.382 264.467 25.59 264.467 25.85V34.976C264.467 35.236 264.597 35.366 264.857 35.366H272.813C273.073 35.366 273.281 35.47 273.437 35.678C273.645 35.834 273.749 36.042 273.749 36.302V41.762Z" fill="#F1F2F2"/>
<path d="M301.129 34.898C302.793 34.898 304.249 35.236 305.497 35.912C305.913 36.12 306.069 36.51 305.965 37.082L304.639 44.102C304.587 44.726 304.223 44.908 303.547 44.648C302.767 44.388 301.857 44.258 300.817 44.258C300.141 44.258 299.621 44.284 299.257 44.336C297.073 44.44 295.253 45.22 293.797 46.676C292.341 48.08 291.613 49.926 291.613 52.214V74.288C291.613 74.548 291.509 74.782 291.301 74.99C291.145 75.146 290.937 75.224 290.677 75.224H283.501C283.241 75.224 283.007 75.146 282.799 74.99C282.643 74.782 282.565 74.548 282.565 74.288V36.302C282.565 36.042 282.643 35.834 282.799 35.678C283.007 35.47 283.241 35.366 283.501 35.366H290.677C290.937 35.366 291.145 35.47 291.301 35.678C291.509 35.834 291.613 36.042 291.613 36.302V39.812C291.613 40.02 291.639 40.15 291.691 40.202C291.795 40.202 291.899 40.124 292.003 39.968C294.187 36.588 297.229 34.898 301.129 34.898Z" fill="#F1F2F2"/>
<path d="M345.527 50.81C345.735 52.11 345.839 53.566 345.839 55.178L345.761 57.596C345.761 58.22 345.449 58.532 344.825 58.532H320.411C320.151 58.532 320.021 58.662 320.021 58.922C320.177 60.638 320.411 61.808 320.723 62.432C321.971 66.176 325.013 68.074 329.849 68.126C333.385 68.126 336.193 66.67 338.273 63.758C338.481 63.446 338.741 63.29 339.053 63.29C339.261 63.29 339.443 63.368 339.599 63.524L344.435 67.502C344.903 67.866 344.981 68.282 344.669 68.75C343.057 71.038 340.899 72.806 338.195 74.054C335.543 75.302 332.579 75.926 329.303 75.926C325.247 75.926 321.789 75.016 318.929 73.196C316.121 71.376 314.067 68.828 312.767 65.552C311.571 62.744 310.973 58.844 310.973 53.852C310.973 50.836 311.285 48.392 311.909 46.52C312.949 42.88 314.899 40.02 317.759 37.94C320.671 35.808 324.155 34.742 328.211 34.742C338.455 34.742 344.227 40.098 345.527 50.81ZM328.211 42.542C326.287 42.542 324.675 43.036 323.375 44.024C322.127 44.96 321.243 46.286 320.723 48.002C320.411 48.886 320.203 50.03 320.099 51.434C319.995 51.694 320.099 51.824 320.411 51.824H336.245C336.505 51.824 336.635 51.694 336.635 51.434C336.531 50.134 336.375 49.146 336.167 48.47C335.699 46.598 334.763 45.142 333.359 44.102C332.007 43.062 330.291 42.542 328.211 42.542Z" fill="#F1F2F2"/>
<path d="M40.6219 95.4988C39.9908 96.1316 38.966 96.1316 38.3295 95.4988L13.1451 70.2027C4.73051 61.7491 0 50.2828 0 38.3244C0 26.366 4.73051 14.8998 13.1451 6.44612L19.0784 0.485835C19.7095 -0.146971 20.7344 -0.146971 21.3709 0.485835L46.5661 25.7927C54.9753 34.2463 59.7004 45.7126 59.7004 57.6656C59.7004 69.6186 54.9699 81.0794 46.5553 89.5331L40.6219 95.4934V95.4988Z" fill="#F1F2F2"/>
<path d="M32.4015 25.7977L57.6129 0.474605C58.244 -0.158202 59.2689 -0.158202 59.9054 0.474605L65.8387 6.42948C70.0137 10.6157 73.3201 15.5862 75.5802 21.0597C77.8403 26.5333 79 32.3962 79 38.324C79 44.2518 77.8403 50.1148 75.5802 55.5883C73.3201 61.0618 70.0137 66.0323 65.8387 70.2185L40.6381 95.5254C40.007 96.1582 38.9822 96.1582 38.3457 95.5254L32.4015 89.5543C23.9816 81.1006 19.2565 69.629 19.2565 57.676C19.2565 45.723 23.987 34.2513 32.4015 25.7977Z" fill="#F9FAFA"/>
</svg>
